<?xml version="1.0" encoding="UTF-8" standalone="no"?>
<!-- Created with Inkscape (http://www.inkscape.org/) -->

<svg
   xmlns:ns1="http://www.iki.fi/pav/software/textext/"
   xmlns:dc="http://purl.org/dc/elements/1.1/"
   xmlns:cc="http://creativecommons.org/ns#"
   xmlns:rdf="http://www.w3.org/1999/02/22-rdf-syntax-ns#"
   xmlns:svg="http://www.w3.org/2000/svg"
   xmlns="http://www.w3.org/2000/svg"
   xmlns:sodipodi="http://sodipodi.sourceforge.net/DTD/sodipodi-0.dtd"
   xmlns:inkscape="http://www.inkscape.org/namespaces/inkscape"
   version="1.1"
   id="svg2"
   xml:space="preserve"
   width="984"
   height="538.66669"
   viewBox="0 0 984 538.66669"
   sodipodi:docname="respostaOtm.svg"
   inkscape:version="0.92.4 (unknown)"><metadata
     id="metadata8"><rdf:RDF><cc:Work
         rdf:about=""><dc:format>image/svg+xml</dc:format><dc:type
           rdf:resource="http://purl.org/dc/dcmitype/StillImage" /><dc:title /></cc:Work></rdf:RDF></metadata><defs
     id="defs6"><marker
       inkscape:stockid="Arrow1Lend"
       orient="auto"
       refY="0.0"
       refX="0.0"
       id="Arrow1Lend"
       style="overflow:visible;"
       inkscape:isstock="true"><path
         id="path1040"
         d="M 0.0,0.0 L 5.0,-5.0 L -12.5,0.0 L 5.0,5.0 L 0.0,0.0 z "
         style="fill-rule:evenodd;stroke:#000000;stroke-width:1pt;stroke-opacity:1;fill:#000000;fill-opacity:1"
         transform="scale(0.8) rotate(180) translate(12.5,0)" /></marker><marker
       inkscape:isstock="true"
       style="overflow:visible"
       id="marker1531"
       refX="0.0"
       refY="0.0"
       orient="auto"
       inkscape:stockid="Arrow1Lstart"><path
         transform="scale(0.8) translate(12.5,0)"
         style="fill-rule:evenodd;stroke:#000000;stroke-width:1pt;stroke-opacity:1;fill:#000000;fill-opacity:1"
         d="M 0.0,0.0 L 5.0,-5.0 L -12.5,0.0 L 5.0,5.0 L 0.0,0.0 z "
         id="path1529" /></marker><marker
       inkscape:isstock="true"
       style="overflow:visible"
       id="marker1449"
       refX="0.0"
       refY="0.0"
       orient="auto"
       inkscape:stockid="Arrow1Lstart"><path
         transform="scale(0.8) translate(12.5,0)"
         style="fill-rule:evenodd;stroke:#000000;stroke-width:1pt;stroke-opacity:1;fill:#000000;fill-opacity:1"
         d="M 0.0,0.0 L 5.0,-5.0 L -12.5,0.0 L 5.0,5.0 L 0.0,0.0 z "
         id="path1447" /></marker><marker
       inkscape:stockid="Arrow1Lstart"
       orient="auto"
       refY="0.0"
       refX="0.0"
       id="marker1373"
       style="overflow:visible"
       inkscape:isstock="true"><path
         id="path1371"
         d="M 0.0,0.0 L 5.0,-5.0 L -12.5,0.0 L 5.0,5.0 L 0.0,0.0 z "
         style="fill-rule:evenodd;stroke:#000000;stroke-width:1pt;stroke-opacity:1;fill:#000000;fill-opacity:1"
         transform="scale(0.8) translate(12.5,0)" /></marker><marker
       inkscape:isstock="true"
       style="overflow:visible"
       id="marker1351"
       refX="0.0"
       refY="0.0"
       orient="auto"
       inkscape:stockid="Arrow1Lstart"><path
         transform="scale(0.8) translate(12.5,0)"
         style="fill-rule:evenodd;stroke:#000000;stroke-width:1pt;stroke-opacity:1;fill:#000000;fill-opacity:1"
         d="M 0.0,0.0 L 5.0,-5.0 L -12.5,0.0 L 5.0,5.0 L 0.0,0.0 z "
         id="path1349" /></marker><marker
       inkscape:stockid="Arrow1Lstart"
       orient="auto"
       refY="0.0"
       refX="0.0"
       id="Arrow1Lstart"
       style="overflow:visible"
       inkscape:isstock="true"
       inkscape:collect="always"><path
         id="path1037"
         d="M 0.0,0.0 L 5.0,-5.0 L -12.5,0.0 L 5.0,5.0 L 0.0,0.0 z "
         style="fill-rule:evenodd;stroke:#000000;stroke-width:1pt;stroke-opacity:1;fill:#000000;fill-opacity:1"
         transform="scale(0.8) translate(12.5,0)" /></marker></defs><sodipodi:namedview
     pagecolor="#ffffff"
     bordercolor="#666666"
     borderopacity="1"
     objecttolerance="10"
     gridtolerance="10"
     guidetolerance="10"
     inkscape:pageopacity="0"
     inkscape:pageshadow="2"
     inkscape:window-width="1600"
     inkscape:window-height="851"
     id="namedview4"
     showgrid="false"
     inkscape:zoom="0.87623759"
     inkscape:cx="338.5648"
     inkscape:cy="278.59841"
     inkscape:window-x="0"
     inkscape:window-y="0"
     inkscape:window-maximized="1"
     inkscape:current-layer="g10" /><g
     id="g10"
     inkscape:groupmode="layer"
     inkscape:label="ink_ext_XXXXXX"
     transform="matrix(1.3333333,0,0,-1.3333333,0,538.66667)"><g
       id="g12"
       transform="scale(0.1)"><path
         d="M 0,0 H 7490 V 4115 H 0 Z"
         style="fill:#ffffff;fill-opacity:1;fill-rule:nonzero;stroke:none"
         id="path14"
         inkscape:connector-curvature="0" /><path
         d="M 0,0 H 7490 V 4115 H 0 Z"
         style="fill:#ffffff;fill-opacity:1;fill-rule:nonzero;stroke:none"
         id="path16"
         inkscape:connector-curvature="0" /><path
         d="M 470,425 H 7302.5 V 3972.5 H 470 Z"
         style="fill:#ffffff;fill-opacity:1;fill-rule:nonzero;stroke:none"
         id="path18"
         inkscape:connector-curvature="0" /><path
         d="M 470,425 V 3972.5"
         style="fill:none;stroke:#dfdfdf;stroke-width:5.00250006;stroke-linecap:butt;stroke-linejoin:round;stroke-miterlimit:10;stroke-dasharray:none;stroke-opacity:1"
         id="path20"
         inkscape:connector-curvature="0" /><path
         d="M 1608.75,425 V 3972.5"
         style="fill:none;stroke:#dfdfdf;stroke-width:5.00250006;stroke-linecap:butt;stroke-linejoin:round;stroke-miterlimit:10;stroke-dasharray:none;stroke-opacity:1"
         id="path22"
         inkscape:connector-curvature="0" /><path
         d="M 2747.5,425 V 3972.5"
         style="fill:none;stroke:#dfdfdf;stroke-width:5.00250006;stroke-linecap:butt;stroke-linejoin:round;stroke-miterlimit:10;stroke-dasharray:none;stroke-opacity:1"
         id="path24"
         inkscape:connector-curvature="0" /><path
         d="M 3886.25,425 V 3972.5"
         style="fill:none;stroke:#dfdfdf;stroke-width:5.00250006;stroke-linecap:butt;stroke-linejoin:round;stroke-miterlimit:10;stroke-dasharray:none;stroke-opacity:1"
         id="path26"
         inkscape:connector-curvature="0" /><path
         d="M 5025,425 V 3972.5"
         style="fill:none;stroke:#dfdfdf;stroke-width:5.00250006;stroke-linecap:butt;stroke-linejoin:round;stroke-miterlimit:10;stroke-dasharray:none;stroke-opacity:1"
         id="path28"
         inkscape:connector-curvature="0" /><path
         d="M 6163.75,425 V 3972.5"
         style="fill:none;stroke:#dfdfdf;stroke-width:5.00250006;stroke-linecap:butt;stroke-linejoin:round;stroke-miterlimit:10;stroke-dasharray:none;stroke-opacity:1"
         id="path30"
         inkscape:connector-curvature="0" /><path
         d="M 7302.5,425 V 3972.5"
         style="fill:none;stroke:#dfdfdf;stroke-width:5.00250006;stroke-linecap:butt;stroke-linejoin:round;stroke-miterlimit:10;stroke-dasharray:none;stroke-opacity:1"
         id="path32"
         inkscape:connector-curvature="0" /><path
         d="M 7302.5,425 H 470"
         style="fill:none;stroke:#dfdfdf;stroke-width:5.00250006;stroke-linecap:butt;stroke-linejoin:round;stroke-miterlimit:10;stroke-dasharray:none;stroke-opacity:1"
         id="path34"
         inkscape:connector-curvature="0" /><path
         d="M 7302.5,1016.25 H 470"
         style="fill:none;stroke:#dfdfdf;stroke-width:5.00250006;stroke-linecap:butt;stroke-linejoin:round;stroke-miterlimit:10;stroke-dasharray:none;stroke-opacity:1"
         id="path36"
         inkscape:connector-curvature="0" /><path
         d="M 7302.5,1607.5 H 470"
         style="fill:none;stroke:#dfdfdf;stroke-width:5.00250006;stroke-linecap:butt;stroke-linejoin:round;stroke-miterlimit:10;stroke-dasharray:none;stroke-opacity:1"
         id="path38"
         inkscape:connector-curvature="0" /><path
         d="M 7302.5,2198.75 H 470"
         style="fill:none;stroke:#dfdfdf;stroke-width:5.00250006;stroke-linecap:butt;stroke-linejoin:round;stroke-miterlimit:10;stroke-dasharray:none;stroke-opacity:1"
         id="path40"
         inkscape:connector-curvature="0" /><path
         d="M 7302.5,2790 H 470"
         style="fill:none;stroke:#dfdfdf;stroke-width:5.00250006;stroke-linecap:butt;stroke-linejoin:round;stroke-miterlimit:10;stroke-dasharray:none;stroke-opacity:1"
         id="path42"
         inkscape:connector-curvature="0" /><path
         d="M 7302.5,3381.25 H 470"
         style="fill:none;stroke:#dfdfdf;stroke-width:5.00250006;stroke-linecap:butt;stroke-linejoin:round;stroke-miterlimit:10;stroke-dasharray:none;stroke-opacity:1"
         id="path44"
         inkscape:connector-curvature="0" /><path
         d="M 7302.5,3972.5 H 470"
         style="fill:none;stroke:#dfdfdf;stroke-width:5.00250006;stroke-linecap:butt;stroke-linejoin:round;stroke-miterlimit:10;stroke-dasharray:none;stroke-opacity:1"
         id="path46"
         inkscape:connector-curvature="0" /><path
         d="M 470,425 H 7302.5"
         style="fill:none;stroke:#262626;stroke-width:5.00250006;stroke-linecap:square;stroke-linejoin:round;stroke-miterlimit:10;stroke-dasharray:none;stroke-opacity:1"
         id="path48"
         inkscape:connector-curvature="0" /><path
         d="M 470,3972.5 H 7302.5"
         style="fill:none;stroke:#262626;stroke-width:5.00250006;stroke-linecap:square;stroke-linejoin:round;stroke-miterlimit:10;stroke-dasharray:none;stroke-opacity:1"
         id="path50"
         inkscape:connector-curvature="0" /><path
         d="m 470,425 v 68.324"
         style="fill:none;stroke:#262626;stroke-width:5.00250006;stroke-linecap:square;stroke-linejoin:round;stroke-miterlimit:10;stroke-dasharray:none;stroke-opacity:1"
         id="path52"
         inkscape:connector-curvature="0" /><path
         d="m 1608.75,425 v 68.324"
         style="fill:none;stroke:#262626;stroke-width:5.00250006;stroke-linecap:square;stroke-linejoin:round;stroke-miterlimit:10;stroke-dasharray:none;stroke-opacity:1"
         id="path54"
         inkscape:connector-curvature="0" /><path
         d="m 2747.5,425 v 68.324"
         style="fill:none;stroke:#262626;stroke-width:5.00250006;stroke-linecap:square;stroke-linejoin:round;stroke-miterlimit:10;stroke-dasharray:none;stroke-opacity:1"
         id="path56"
         inkscape:connector-curvature="0" /><path
         d="m 3886.25,425 v 68.324"
         style="fill:none;stroke:#262626;stroke-width:5.00250006;stroke-linecap:square;stroke-linejoin:round;stroke-miterlimit:10;stroke-dasharray:none;stroke-opacity:1"
         id="path58"
         inkscape:connector-curvature="0" /><path
         d="m 5025,425 v 68.324"
         style="fill:none;stroke:#262626;stroke-width:5.00250006;stroke-linecap:square;stroke-linejoin:round;stroke-miterlimit:10;stroke-dasharray:none;stroke-opacity:1"
         id="path60"
         inkscape:connector-curvature="0" /><path
         d="m 6163.75,425 v 68.324"
         style="fill:none;stroke:#262626;stroke-width:5.00250006;stroke-linecap:square;stroke-linejoin:round;stroke-miterlimit:10;stroke-dasharray:none;stroke-opacity:1"
         id="path62"
         inkscape:connector-curvature="0" /><path
         d="m 7302.5,425 v 68.324"
         style="fill:none;stroke:#262626;stroke-width:5.00250006;stroke-linecap:square;stroke-linejoin:round;stroke-miterlimit:10;stroke-dasharray:none;stroke-opacity:1"
         id="path64"
         inkscape:connector-curvature="0" /><path
         d="m 470,3972.5 v -68.32"
         style="fill:none;stroke:#262626;stroke-width:5.00250006;stroke-linecap:square;stroke-linejoin:round;stroke-miterlimit:10;stroke-dasharray:none;stroke-opacity:1"
         id="path66"
         inkscape:connector-curvature="0" /><path
         d="m 1608.75,3972.5 v -68.32"
         style="fill:none;stroke:#262626;stroke-width:5.00250006;stroke-linecap:square;stroke-linejoin:round;stroke-miterlimit:10;stroke-dasharray:none;stroke-opacity:1"
         id="path68"
         inkscape:connector-curvature="0" /><path
         d="m 2747.5,3972.5 v -68.32"
         style="fill:none;stroke:#262626;stroke-width:5.00250006;stroke-linecap:square;stroke-linejoin:round;stroke-miterlimit:10;stroke-dasharray:none;stroke-opacity:1"
         id="path70"
         inkscape:connector-curvature="0" /><path
         d="m 3886.25,3972.5 v -68.32"
         style="fill:none;stroke:#262626;stroke-width:5.00250006;stroke-linecap:square;stroke-linejoin:round;stroke-miterlimit:10;stroke-dasharray:none;stroke-opacity:1"
         id="path72"
         inkscape:connector-curvature="0" /><path
         d="m 5025,3972.5 v -68.32"
         style="fill:none;stroke:#262626;stroke-width:5.00250006;stroke-linecap:square;stroke-linejoin:round;stroke-miterlimit:10;stroke-dasharray:none;stroke-opacity:1"
         id="path74"
         inkscape:connector-curvature="0" /><path
         d="m 6163.75,3972.5 v -68.32"
         style="fill:none;stroke:#262626;stroke-width:5.00250006;stroke-linecap:square;stroke-linejoin:round;stroke-miterlimit:10;stroke-dasharray:none;stroke-opacity:1"
         id="path76"
         inkscape:connector-curvature="0" /><path
         d="m 7302.5,3972.5 v -68.32"
         style="fill:none;stroke:#262626;stroke-width:5.00250006;stroke-linecap:square;stroke-linejoin:round;stroke-miterlimit:10;stroke-dasharray:none;stroke-opacity:1"
         id="path78"
         inkscape:connector-curvature="0" /><path
         d="m 371.637,276.773 v 9.262 h 39.726 v -9.262 h -39.726"
         style="fill:#262626;fill-opacity:1;fill-rule:nonzero;stroke:none"
         id="path80"
         inkscape:connector-curvature="0" /><path
         d="m 434.301,260.602 c 2.34,-3.438 5.48,-5.981 9.426,-7.618 3.945,-1.64 8.187,-2.461 12.722,-2.461 5.86,0 10,2.461 12.418,7.387 2.422,4.918 3.629,10.543 3.629,16.875 0,2.809 -0.25,5.641 -0.758,8.488 -0.508,2.856 -1.367,5.493 -2.578,7.915 -1.211,2.421 -2.89,4.371 -5.039,5.859 -2.152,1.484 -4.75,2.226 -7.793,2.226 h -9.961 c -0.859,0 -1.289,0.469 -1.289,1.411 v 1.289 c 0,0.781 0.43,1.168 1.289,1.168 l 8.317,0.707 c 3.515,0 6.425,1.308 8.73,3.922 2.305,2.617 4.008,5.816 5.102,9.609 1.093,3.789 1.64,7.402 1.64,10.844 0,4.765 -1.133,8.691 -3.394,11.773 -2.266,3.086 -5.703,4.629 -10.313,4.629 -3.75,0 -7.367,-0.723 -10.847,-2.168 -3.473,-1.445 -6.227,-3.652 -8.258,-6.621 0.156,0.078 0.312,0.141 0.465,0.18 0.16,0.035 0.32,0.05 0.472,0.05 2.266,0 4.16,-0.777 5.688,-2.339 1.519,-1.563 2.277,-3.481 2.277,-5.743 0,-2.113 -0.758,-3.945 -2.277,-5.507 -1.528,-1.563 -3.422,-2.348 -5.688,-2.348 -2.187,0 -4.062,0.785 -5.625,2.348 -1.562,1.562 -2.347,3.394 -2.347,5.507 0,4.297 1.293,8.047 3.871,11.25 2.582,3.204 5.922,5.625 10.019,7.266 4.102,1.641 8.184,2.461 12.25,2.461 3.043,0 6.246,-0.469 9.606,-1.402 3.359,-0.942 6.406,-2.25 9.144,-3.93 2.735,-1.68 4.977,-3.828 6.735,-6.445 1.757,-2.618 2.64,-5.606 2.64,-8.961 0,-4.219 -0.937,-8.11 -2.812,-11.664 -1.875,-3.555 -4.457,-6.637 -7.742,-9.254 -3.282,-2.621 -6.872,-4.555 -10.778,-5.805 4.297,-0.781 8.399,-2.398 12.309,-4.859 3.902,-2.465 7.047,-5.59 9.426,-9.375 2.386,-3.789 3.578,-7.914 3.578,-12.368 0,-5.472 -1.504,-10.449 -4.516,-14.941 -3.004,-4.488 -6.988,-7.984 -11.945,-10.484 -4.965,-2.5 -10.18,-3.75 -15.645,-3.75 -4.691,0 -9.379,0.898 -14.062,2.691 -4.692,1.797 -8.539,4.473 -11.543,8.027 -3.012,3.555 -4.516,7.832 -4.516,12.832 0,2.426 0.82,4.477 2.461,6.157 1.637,1.675 3.707,2.511 6.207,2.511 1.641,0 3.125,-0.367 4.457,-1.109 1.328,-0.738 2.383,-1.793 3.164,-3.164 0.781,-1.367 1.172,-2.832 1.172,-4.395 0,-2.5 -0.863,-4.57 -2.582,-6.21 -1.715,-1.641 -3.785,-2.461 -6.211,-2.461 h -0.695"
         style="fill:#262626;fill-opacity:1;fill-rule:nonzero;stroke:none"
         id="path82"
         inkscape:connector-curvature="0" /><path
         d="m 532.496,245.723 c -12.262,0 -20.605,5.039 -25.019,15.113 -4.411,10.078 -6.614,22.07 -6.614,35.977 0,8.671 0.801,16.855 2.399,24.554 1.601,7.696 4.746,14.219 9.437,19.567 4.684,5.351 11.285,8.027 19.797,8.027 6.567,0 11.957,-1.621 16.18,-4.859 4.215,-3.247 7.418,-7.426 9.605,-12.543 2.188,-5.118 3.688,-10.59 4.508,-16.411 0.82,-5.82 1.231,-11.929 1.231,-18.335 0,-8.594 -0.801,-16.641 -2.399,-24.141 -1.601,-7.5 -4.726,-13.871 -9.375,-19.106 -4.652,-5.23 -11.234,-7.843 -19.75,-7.843 z m 0,3.863 c 5.551,0 9.695,2.852 12.43,8.555 2.73,5.703 4.426,12.031 5.09,18.984 0.668,6.953 1,14.336 1,22.148 0,7.5 -0.332,14.434 -1,20.805 -0.664,6.363 -2.344,12.106 -5.039,17.227 -2.696,5.117 -6.856,7.672 -12.481,7.672 -5.625,0 -9.805,-2.579 -12.539,-7.731 -2.73,-5.16 -4.426,-10.902 -5.094,-17.23 -0.664,-6.328 -0.996,-13.243 -0.996,-20.743 0,-5.546 0.137,-10.796 0.414,-15.757 0.27,-4.965 0.992,-10.063 2.168,-15.293 1.168,-5.235 3.063,-9.649 5.684,-13.246 2.613,-3.594 6.07,-5.391 10.363,-5.391"
         style="fill:#262626;fill-opacity:1;fill-rule:nonzero;stroke:none"
         id="path84"
         inkscape:connector-curvature="0" /><path
         d="m 1510.39,276.773 v 9.262 h 39.72 v -9.262 h -39.72"
         style="fill:#262626;fill-opacity:1;fill-rule:nonzero;stroke:none"
         id="path86"
         inkscape:connector-curvature="0" /><path
         d="m 1566.25,249 v 3.984 c 0,0.313 0.08,0.59 0.24,0.825 l 23.31,25.777 c 3.52,3.828 6.37,7.031 8.56,9.605 2.19,2.582 4.35,5.571 6.5,8.973 2.15,3.395 3.85,6.832 5.1,10.313 1.25,3.472 1.87,7.164 1.87,11.07 0,4.062 -0.76,7.969 -2.28,11.719 -1.52,3.75 -3.77,6.757 -6.74,9.023 -2.97,2.266 -6.6,3.399 -10.9,3.399 -4.29,0 -8.18,-1.309 -11.65,-3.922 -3.48,-2.621 -5.92,-6 -7.33,-10.141 0.39,0.078 0.9,0.121 1.52,0.121 2.27,0 4.2,-0.762 5.81,-2.289 1.6,-1.523 2.4,-3.496 2.4,-5.918 0,-2.266 -0.8,-4.195 -2.4,-5.797 -1.61,-1.605 -3.54,-2.406 -5.81,-2.406 -2.34,0 -4.29,0.82 -5.86,2.461 -1.56,1.637 -2.34,3.555 -2.34,5.742 0,3.832 0.7,7.387 2.11,10.664 1.41,3.281 3.44,6.211 6.09,8.793 2.66,2.574 5.66,4.547 9.03,5.918 3.36,1.363 6.91,2.047 10.66,2.047 5.7,0 11.02,-1.211 15.94,-3.633 4.92,-2.422 8.83,-5.84 11.72,-10.25 2.89,-4.414 4.34,-9.594 4.34,-15.531 0,-4.375 -0.96,-8.516 -2.88,-12.422 -1.91,-3.906 -4.35,-7.461 -7.33,-10.664 -2.96,-3.199 -6.77,-6.813 -11.42,-10.84 -4.65,-4.023 -7.67,-6.738 -9.08,-8.144 l -17,-16.289 h 14.42 c 7.03,0 12.93,0.058 17.7,0.179 4.77,0.117 7.3,0.289 7.61,0.524 1.18,1.25 2.39,5.863 3.64,13.832 h 4.34 L 1621.91,249 h -55.66"
         style="fill:#262626;fill-opacity:1;fill-rule:nonzero;stroke:none"
         id="path88"
         inkscape:connector-curvature="0" /><path
         d="m 1671.25,245.723 c -12.27,0 -20.61,5.039 -25.02,15.113 -4.41,10.078 -6.62,22.07 -6.62,35.977 0,8.671 0.8,16.855 2.4,24.554 1.6,7.696 4.75,14.219 9.44,19.567 4.68,5.351 11.28,8.027 19.8,8.027 6.56,0 11.95,-1.621 16.18,-4.859 4.21,-3.247 7.41,-7.426 9.6,-12.543 2.19,-5.118 3.69,-10.59 4.51,-16.411 0.82,-5.82 1.23,-11.929 1.23,-18.335 0,-8.594 -0.8,-16.641 -2.4,-24.141 -1.6,-7.5 -4.73,-13.871 -9.37,-19.106 -4.66,-5.23 -11.24,-7.843 -19.75,-7.843 z m 0,3.863 c 5.55,0 9.69,2.852 12.43,8.555 2.73,5.703 4.42,12.031 5.09,18.984 0.66,6.953 1,14.336 1,22.148 0,7.5 -0.34,14.434 -1,20.805 -0.67,6.363 -2.35,12.106 -5.04,17.227 -2.7,5.117 -6.86,7.672 -12.48,7.672 -5.63,0 -9.81,-2.579 -12.54,-7.731 -2.73,-5.16 -4.43,-10.902 -5.1,-17.23 -0.66,-6.328 -0.99,-13.243 -0.99,-20.743 0,-5.546 0.13,-10.796 0.41,-15.757 0.27,-4.965 0.99,-10.063 2.17,-15.293 1.17,-5.235 3.06,-9.649 5.68,-13.246 2.62,-3.594 6.07,-5.391 10.37,-5.391"
         style="fill:#262626;fill-opacity:1;fill-rule:nonzero;stroke:none"
         id="path90"
         inkscape:connector-curvature="0" /><path
         d="m 2649.14,276.773 v 9.262 h 39.72 v -9.262 h -39.72"
         style="fill:#262626;fill-opacity:1;fill-rule:nonzero;stroke:none"
         id="path92"
         inkscape:connector-curvature="0" /><path
         d="m 2711.45,249 v 5.273 c 12.5,0 18.75,1.602 18.75,4.805 v 78.75 c -5.16,-2.5 -11.72,-3.75 -19.69,-3.75 v 5.274 c 12.26,0 21.52,3.203 27.77,9.609 h 2.11 c 0.39,0 0.74,-0.137 1.06,-0.406 0.31,-0.274 0.46,-0.606 0.46,-0.996 v -88.481 c 0,-3.203 6.25,-4.805 18.75,-4.805 V 249 h -49.21"
         style="fill:#262626;fill-opacity:1;fill-rule:nonzero;stroke:none"
         id="path94"
         inkscape:connector-curvature="0" /><path
         d="m 2810,245.723 c -12.27,0 -20.61,5.039 -25.02,15.113 -4.41,10.078 -6.62,22.07 -6.62,35.977 0,8.671 0.8,16.855 2.4,24.554 1.6,7.696 4.75,14.219 9.44,19.567 4.68,5.351 11.28,8.027 19.8,8.027 6.56,0 11.96,-1.621 16.18,-4.859 4.21,-3.247 7.41,-7.426 9.6,-12.543 2.19,-5.118 3.69,-10.59 4.51,-16.411 0.82,-5.82 1.23,-11.929 1.23,-18.335 0,-8.594 -0.8,-16.641 -2.4,-24.141 -1.6,-7.5 -4.73,-13.871 -9.37,-19.106 -4.66,-5.23 -11.24,-7.843 -19.75,-7.843 z m 0,3.863 c 5.55,0 9.69,2.852 12.43,8.555 2.73,5.703 4.42,12.031 5.09,18.984 0.66,6.953 1,14.336 1,22.148 0,7.5 -0.34,14.434 -1,20.805 -0.67,6.363 -2.35,12.106 -5.04,17.227 -2.7,5.117 -6.86,7.672 -12.48,7.672 -5.63,0 -9.81,-2.579 -12.54,-7.731 -2.73,-5.16 -4.43,-10.902 -5.1,-17.23 -0.66,-6.328 -0.99,-13.243 -0.99,-20.743 0,-5.546 0.13,-10.796 0.41,-15.757 0.27,-4.965 0.99,-10.063 2.17,-15.293 1.17,-5.235 3.06,-9.649 5.68,-13.246 2.62,-3.594 6.07,-5.391 10.37,-5.391"
         style="fill:#262626;fill-opacity:1;fill-rule:nonzero;stroke:none"
         id="path96"
         inkscape:connector-curvature="0" /><path
         d="m 3886.25,245.723 c -12.27,0 -20.61,5.039 -25.02,15.113 -4.41,10.078 -6.62,22.07 -6.62,35.977 0,8.671 0.8,16.855 2.41,24.554 1.59,7.696 4.74,14.219 9.42,19.567 4.69,5.351 11.29,8.027 19.81,8.027 6.57,0 11.96,-1.621 16.17,-4.859 4.22,-3.247 7.42,-7.426 9.62,-12.543 2.18,-5.118 3.68,-10.59 4.5,-16.411 0.82,-5.82 1.23,-11.929 1.23,-18.335 0,-8.594 -0.8,-16.641 -2.4,-24.141 -1.6,-7.5 -4.72,-13.871 -9.37,-19.106 -4.65,-5.23 -11.23,-7.843 -19.75,-7.843 z m 0,3.863 c 5.55,0 9.68,2.852 12.42,8.555 2.74,5.703 4.44,12.031 5.1,18.984 0.66,6.953 1,14.336 1,22.148 0,7.5 -0.34,14.434 -1,20.805 -0.66,6.363 -2.34,12.106 -5.04,17.227 -2.69,5.117 -6.85,7.672 -12.48,7.672 -5.62,0 -9.8,-2.579 -12.54,-7.731 -2.73,-5.16 -4.44,-10.902 -5.1,-17.23 -0.66,-6.328 -0.99,-13.243 -0.99,-20.743 0,-5.546 0.13,-10.796 0.4,-15.757 0.28,-4.965 1,-10.063 2.17,-15.293 1.18,-5.235 3.07,-9.649 5.69,-13.246 2.62,-3.594 6.08,-5.391 10.37,-5.391"
         style="fill:#262626;fill-opacity:1;fill-rule:nonzero;stroke:none"
         id="path98"
         inkscape:connector-curvature="0" /><path
         d="m 4963.94,249 v 5.273 c 12.5,0 18.75,1.602 18.75,4.805 v 78.75 c -5.15,-2.5 -11.71,-3.75 -19.69,-3.75 v 5.274 c 12.27,0 21.53,3.203 27.78,9.609 h 2.11 c 0.39,0 0.74,-0.137 1.05,-0.406 0.32,-0.274 0.47,-0.606 0.47,-0.996 v -88.481 c 0,-3.203 6.25,-4.805 18.75,-4.805 V 249 h -49.22"
         style="fill:#262626;fill-opacity:1;fill-rule:nonzero;stroke:none"
         id="path100"
         inkscape:connector-curvature="0" /><path
         d="m 5062.5,245.723 c -12.27,0 -20.61,5.039 -25.02,15.113 -4.41,10.078 -6.62,22.07 -6.62,35.977 0,8.671 0.8,16.855 2.41,24.554 1.59,7.696 4.74,14.219 9.42,19.567 4.69,5.351 11.29,8.027 19.81,8.027 6.57,0 11.95,-1.621 16.17,-4.859 4.22,-3.247 7.42,-7.426 9.62,-12.543 2.18,-5.118 3.68,-10.59 4.5,-16.411 0.82,-5.82 1.23,-11.929 1.23,-18.335 0,-8.594 -0.8,-16.641 -2.4,-24.141 -1.6,-7.5 -4.72,-13.871 -9.37,-19.106 -4.65,-5.23 -11.23,-7.843 -19.75,-7.843 z m 0,3.863 c 5.54,0 9.68,2.852 12.42,8.555 2.74,5.703 4.44,12.031 5.1,18.984 0.66,6.953 1,14.336 1,22.148 0,7.5 -0.34,14.434 -1,20.805 -0.66,6.363 -2.34,12.106 -5.04,17.227 -2.69,5.117 -6.85,7.672 -12.48,7.672 -5.62,0 -9.8,-2.579 -12.54,-7.731 -2.73,-5.16 -4.44,-10.902 -5.1,-17.23 -0.66,-6.328 -0.99,-13.243 -0.99,-20.743 0,-5.546 0.13,-10.796 0.4,-15.757 0.28,-4.965 1,-10.063 2.17,-15.293 1.18,-5.235 3.07,-9.649 5.69,-13.246 2.62,-3.594 6.07,-5.391 10.37,-5.391"
         style="fill:#262626;fill-opacity:1;fill-rule:nonzero;stroke:none"
         id="path102"
         inkscape:connector-curvature="0" /><path
         d="m 6096.25,249 v 3.984 c 0,0.313 0.08,0.59 0.23,0.825 l 23.33,25.777 c 3.51,3.828 6.36,7.031 8.55,9.605 2.19,2.582 4.35,5.571 6.5,8.973 2.15,3.395 3.85,6.832 5.1,10.313 1.25,3.472 1.88,7.164 1.88,11.07 0,4.062 -0.77,7.969 -2.29,11.719 -1.52,3.75 -3.77,6.757 -6.74,9.023 -2.97,2.266 -6.6,3.399 -10.9,3.399 -4.29,0 -8.18,-1.309 -11.66,-3.922 -3.47,-2.621 -5.91,-6 -7.32,-10.141 0.39,0.078 0.9,0.121 1.53,0.121 2.26,0 4.19,-0.762 5.79,-2.289 1.6,-1.523 2.4,-3.496 2.4,-5.918 0,-2.266 -0.8,-4.195 -2.4,-5.797 -1.6,-1.605 -3.53,-2.406 -5.79,-2.406 -2.35,0 -4.3,0.82 -5.87,2.461 -1.56,1.637 -2.34,3.555 -2.34,5.742 0,3.832 0.7,7.387 2.11,10.664 1.4,3.281 3.44,6.211 6.1,8.793 2.65,2.574 5.66,4.547 9.02,5.918 3.36,1.363 6.91,2.047 10.66,2.047 5.7,0 11.02,-1.211 15.94,-3.633 4.92,-2.422 8.83,-5.84 11.72,-10.25 2.88,-4.414 4.33,-9.594 4.33,-15.531 0,-4.375 -0.95,-8.516 -2.86,-12.422 -1.92,-3.906 -4.36,-7.461 -7.33,-10.664 -2.97,-3.199 -6.78,-6.813 -11.42,-10.84 -4.65,-4.023 -7.68,-6.738 -9.09,-8.144 l -16.99,-16.289 h 14.41 c 7.03,0 12.93,0.058 17.7,0.179 4.76,0.117 7.3,0.289 7.61,0.524 1.18,1.25 2.39,5.863 3.64,13.832 h 4.33 L 6151.91,249 h -55.66"
         style="fill:#262626;fill-opacity:1;fill-rule:nonzero;stroke:none"
         id="path104"
         inkscape:connector-curvature="0" /><path
         d="m 6201.25,245.723 c -12.27,0 -20.61,5.039 -25.02,15.113 -4.41,10.078 -6.62,22.07 -6.62,35.977 0,8.671 0.8,16.855 2.41,24.554 1.6,7.696 4.74,14.219 9.42,19.567 4.69,5.351 11.29,8.027 19.81,8.027 6.57,0 11.96,-1.621 16.17,-4.859 4.22,-3.247 7.42,-7.426 9.62,-12.543 2.18,-5.118 3.68,-10.59 4.5,-16.411 0.82,-5.82 1.23,-11.929 1.23,-18.335 0,-8.594 -0.8,-16.641 -2.4,-24.141 -1.6,-7.5 -4.72,-13.871 -9.37,-19.106 -4.65,-5.23 -11.23,-7.843 -19.75,-7.843 z m 0,3.863 c 5.55,0 9.68,2.852 12.42,8.555 2.74,5.703 4.44,12.031 5.1,18.984 0.66,6.953 1,14.336 1,22.148 0,7.5 -0.34,14.434 -1,20.805 -0.66,6.363 -2.34,12.106 -5.04,17.227 -2.69,5.117 -6.85,7.672 -12.48,7.672 -5.62,0 -9.8,-2.579 -12.54,-7.731 -2.73,-5.16 -4.44,-10.902 -5.1,-17.23 -0.66,-6.328 -0.99,-13.243 -0.99,-20.743 0,-5.546 0.13,-10.796 0.4,-15.757 0.28,-4.965 1,-10.063 2.17,-15.293 1.18,-5.235 3.07,-9.649 5.69,-13.246 2.62,-3.594 6.08,-5.391 10.37,-5.391"
         style="fill:#262626;fill-opacity:1;fill-rule:nonzero;stroke:none"
         id="path106"
         inkscape:connector-curvature="0" /><path
         d="m 7241.8,260.602 c 2.34,-3.438 5.49,-5.981 9.43,-7.618 3.95,-1.64 8.18,-2.461 12.71,-2.461 5.86,0 10.01,2.461 12.43,7.387 2.42,4.918 3.63,10.543 3.63,16.875 0,2.809 -0.25,5.641 -0.77,8.488 -0.5,2.856 -1.36,5.493 -2.57,7.915 -1.21,2.421 -2.89,4.371 -5.04,5.859 -2.15,1.484 -4.74,2.226 -7.79,2.226 h -9.96 c -0.86,0 -1.29,0.469 -1.29,1.411 v 1.289 c 0,0.781 0.43,1.168 1.29,1.168 l 8.32,0.707 c 3.51,0 6.42,1.308 8.73,3.922 2.3,2.617 4,5.816 5.1,9.609 1.09,3.789 1.63,7.402 1.63,10.844 0,4.765 -1.13,8.691 -3.4,11.773 -2.26,3.086 -5.7,4.629 -10.31,4.629 -3.75,0 -7.36,-0.723 -10.83,-2.168 -3.48,-1.445 -6.23,-3.652 -8.27,-6.621 0.16,0.078 0.32,0.141 0.47,0.18 0.16,0.035 0.31,0.05 0.47,0.05 2.27,0 4.16,-0.777 5.68,-2.339 1.53,-1.563 2.29,-3.481 2.29,-5.743 0,-2.113 -0.76,-3.945 -2.29,-5.507 -1.52,-1.563 -3.41,-2.348 -5.68,-2.348 -2.19,0 -4.06,0.785 -5.63,2.348 -1.56,1.562 -2.34,3.394 -2.34,5.507 0,4.297 1.29,8.047 3.87,11.25 2.58,3.204 5.92,5.625 10.02,7.266 4.1,1.641 8.18,2.461 12.24,2.461 3.05,0 6.26,-0.469 9.62,-1.402 3.35,-0.942 6.4,-2.25 9.13,-3.93 2.74,-1.68 4.99,-3.828 6.74,-6.445 1.76,-2.618 2.64,-5.606 2.64,-8.961 0,-4.219 -0.94,-8.11 -2.82,-11.664 -1.87,-3.555 -4.45,-6.637 -7.73,-9.254 -3.28,-2.621 -6.87,-4.555 -10.77,-5.805 4.29,-0.781 8.39,-2.398 12.3,-4.859 3.9,-2.465 7.04,-5.59 9.43,-9.375 2.39,-3.789 3.58,-7.914 3.58,-12.368 0,-5.472 -1.51,-10.449 -4.52,-14.941 -3.01,-4.488 -6.99,-7.984 -11.95,-10.484 -4.96,-2.5 -10.18,-3.75 -15.65,-3.75 -4.68,0 -9.37,0.898 -14.06,2.691 -4.68,1.797 -8.53,4.473 -11.54,8.027 -3.01,3.555 -4.51,7.832 -4.51,12.832 0,2.426 0.82,4.477 2.46,6.157 1.64,1.675 3.71,2.511 6.21,2.511 1.64,0 3.13,-0.367 4.46,-1.109 1.32,-0.738 2.38,-1.793 3.16,-3.164 0.78,-1.367 1.17,-2.832 1.17,-4.395 0,-2.5 -0.86,-4.57 -2.58,-6.21 -1.72,-1.641 -3.79,-2.461 -6.21,-2.461 h -0.7"
         style="fill:#262626;fill-opacity:1;fill-rule:nonzero;stroke:none"
         id="path108"
         inkscape:connector-curvature="0" /><path
         d="m 7340,245.723 c -12.27,0 -20.61,5.039 -25.02,15.113 -4.41,10.078 -6.62,22.07 -6.62,35.977 0,8.671 0.8,16.855 2.41,24.554 1.6,7.696 4.74,14.219 9.42,19.567 4.69,5.351 11.29,8.027 19.81,8.027 6.57,0 11.96,-1.621 16.17,-4.859 4.22,-3.247 7.42,-7.426 9.62,-12.543 2.18,-5.118 3.68,-10.59 4.5,-16.411 0.82,-5.82 1.23,-11.929 1.23,-18.335 0,-8.594 -0.8,-16.641 -2.4,-24.141 -1.6,-7.5 -4.72,-13.871 -9.37,-19.106 -4.65,-5.23 -11.23,-7.843 -19.75,-7.843 z m 0,3.863 c 5.55,0 9.68,2.852 12.42,8.555 2.74,5.703 4.44,12.031 5.1,18.984 0.66,6.953 1,14.336 1,22.148 0,7.5 -0.34,14.434 -1,20.805 -0.66,6.363 -2.34,12.106 -5.04,17.227 -2.69,5.117 -6.85,7.672 -12.48,7.672 -5.62,0 -9.8,-2.579 -12.54,-7.731 -2.73,-5.16 -4.44,-10.902 -5.1,-17.23 -0.66,-6.328 -0.99,-13.243 -0.99,-20.743 0,-5.546 0.13,-10.796 0.4,-15.757 0.28,-4.965 1,-10.063 2.17,-15.293 1.18,-5.235 3.07,-9.649 5.69,-13.246 2.62,-3.594 6.08,-5.391 10.37,-5.391"
         style="fill:#262626;fill-opacity:1;fill-rule:nonzero;stroke:none"
         id="path110"
         inkscape:connector-curvature="0" /><path
         d="m 3748.05,44.5234 c -5,0 -9,1.836 -12.01,5.5079 -3.01,3.6718 -5.1,8.0898 -6.27,13.2421 -1.18,5.1563 -1.76,10.2344 -1.76,15.2344 v 0.2383 c 0,5.4648 0.53,11.1484 1.58,17.0508 1.06,5.8981 2.58,11.7971 4.57,17.6911 2,5.899 4.16,11.153 6.5,15.766 1.57,3.203 3.64,6.797 6.22,10.777 2.58,3.985 5.42,7.696 8.55,11.137 3.12,3.434 6.51,6.227 10.14,8.379 3.63,2.148 7.28,3.223 10.96,3.223 h 0.23 c 3.99,0 7.31,-1.114 9.96,-3.344 2.66,-2.227 4.71,-5.055 6.15,-8.492 1.45,-3.438 2.48,-7.11 3.11,-11.016 0.62,-3.906 0.93,-7.617 0.93,-11.137 0,-8.355 -1.13,-16.871 -3.39,-25.547 -2.27,-8.6676 -5.39,-17.066 -9.38,-25.191 -1.48,-3.0508 -3.55,-6.6446 -6.21,-10.7852 -2.65,-4.1406 -5.49,-7.8515 -8.5,-11.1289 -3,-3.2812 -6.36,-6.0351 -10.07,-8.2656 -3.72,-2.2266 -7.45,-3.3399 -11.2,-3.3399 z m 0.35,4.336 c 3.59,0 7.07,1.9531 10.43,5.8594 3.36,3.9101 6.31,8.6367 8.85,14.1796 2.54,5.5469 4.77,11.25 6.68,17.1094 1.91,5.8594 3.3,10.8203 4.16,14.8872 h -33.63 c -1.73,-6.9536 -3.07,-12.9341 -4.05,-17.9341 -0.97,-5 -1.46,-9.9218 -1.46,-14.7656 0,-12.8906 3.01,-19.3359 9.02,-19.3359 z m -2.22,57.7736 h 33.86 c 1.17,4.844 2.11,8.89 2.81,12.133 0.7,3.242 1.29,6.66 1.76,10.254 0.47,3.589 0.71,6.949 0.71,10.074 0,12.894 -2.93,19.34 -8.79,19.34 -6.96,0 -12.98,-5.625 -18.05,-16.875 -5.08,-11.25 -9.18,-22.891 -12.3,-34.926"
         style="fill:#262626;fill-opacity:1;fill-rule:nonzero;stroke:none"
         id="path112"
         inkscape:connector-curvature="0" /><path
         d="m 3909.7,5.50391 c -6.17,4.84379 -11.47,10.39059 -15.88,16.64059 -4.41,6.25 -8.03,12.9102 -10.84,19.9805 -2.81,7.0703 -4.92,14.4727 -6.33,22.207 -1.4,7.7344 -2.1,15.5078 -2.1,23.3164 0,7.8907 0.7,15.7036 2.1,23.4376 1.41,7.738 3.54,15.18 6.39,22.328 2.85,7.145 6.51,13.824 10.96,20.039 4.45,6.211 9.68,11.66 15.7,16.344 0,0.234 0.23,0.351 0.7,0.351 h 1.65 c 0.31,0 0.6,-0.152 0.87,-0.464 0.28,-0.313 0.42,-0.625 0.42,-0.938 0,-0.547 -0.12,-0.902 -0.36,-1.055 -5.39,-5.316 -9.86,-10.98 -13.41,-16.996 -3.56,-6.015 -6.43,-12.422 -8.62,-19.215 -2.19,-6.8 -3.77,-13.832 -4.75,-21.097 -0.97,-7.266 -1.46,-14.8439 -1.46,-22.7346 0,-35 9.33,-61.5625 28.01,-79.68746 0.39,-0.3086 0.59,-0.77735 0.59,-1.40235 0,-0.23437 -0.16,-0.52734 -0.48,-0.88281 -0.31,-0.35156 -0.58,-0.52734 -0.81,-0.52734 h -1.65 c -0.47,0 -0.7,0.11719 -0.7,0.35547"
         style="fill:#262626;fill-opacity:1;fill-rule:nonzero;stroke:none"
         id="path114"
         inkscape:connector-curvature="0" /><path
         d="m 3945.27,104.988 c -3.52,0 -6.66,0.84 -9.43,2.524 -2.77,1.679 -4.92,3.941 -6.45,6.793 -1.52,2.851 -2.28,6.113 -2.28,9.789 0,5.074 1.43,10.109 4.28,15.109 2.85,5 6.64,9.047 11.36,12.137 4.73,3.086 9.67,4.629 14.83,4.629 2.73,0 5.19,-0.473 7.38,-1.41 2.19,-0.938 4.08,-2.262 5.68,-3.985 1.61,-1.719 2.84,-3.73 3.69,-6.035 0.86,-2.305 1.3,-4.828 1.3,-7.562 0,-3.903 -0.83,-7.75 -2.47,-11.543 -1.64,-3.786 -3.88,-7.223 -6.73,-10.313 -2.86,-3.082 -6.14,-5.543 -9.85,-7.379 -3.71,-1.836 -7.48,-2.754 -11.31,-2.754 z m 0.24,3.047 c 3.36,0 6.4,1.133 9.13,3.399 2.74,2.265 5.01,5.117 6.81,8.554 1.79,3.438 3.16,7.09 4.1,10.961 0.93,3.864 1.4,7.36 1.4,10.485 0,3.203 -0.8,5.937 -2.4,8.203 -1.6,2.265 -4,3.398 -7.21,3.398 -4.37,0 -8.21,-1.875 -11.54,-5.625 -3.32,-3.75 -5.8,-8.222 -7.44,-13.418 -1.64,-5.195 -2.47,-9.98 -2.47,-14.355 0,-3.203 0.83,-5.938 2.47,-8.203 1.64,-2.266 4.03,-3.399 7.15,-3.399"
         style="fill:#262626;fill-opacity:1;fill-rule:nonzero;stroke:none"
         id="path116"
         inkscape:connector-curvature="0" /><path
         d="m 3997.55,5.14844 c -0.93,0 -1.4,0.47265 -1.4,1.41015 0,0.54688 0.12,0.89454 0.35,1.05079 18.75,18.35942 28.13,45.03902 28.13,80.03902 0,34.9996 -9.26,61.5626 -27.77,79.6876 -0.47,0.238 -0.71,0.707 -0.71,1.41 0,0.313 0.15,0.625 0.47,0.938 0.31,0.312 0.62,0.464 0.93,0.464 h 1.65 c 0.31,0 0.55,-0.117 0.7,-0.351 7.89,-6.168 14.48,-13.727 19.75,-22.672 5.27,-8.945 9.14,-18.457 11.6,-28.539 2.46,-10.078 3.69,-20.3907 3.69,-30.9376 0,-7.8086 -0.66,-15.4843 -1.99,-23.0234 -1.33,-7.5391 -3.42,-14.9844 -6.27,-22.3281 -2.86,-7.3438 -6.49,-14.1016 -10.9,-20.2735 -4.42,-6.1679 -9.71,-11.6757 -15.88,-16.51949 -0.15,-0.23828 -0.39,-0.35547 -0.7,-0.35547 h -1.65"
         style="fill:#262626;fill-opacity:1;fill-rule:nonzero;stroke:none"
         id="path118"
         inkscape:connector-curvature="0" /><path
         d="M 470,425 V 3972.5"
         style="fill:none;stroke:#262626;stroke-width:5.00250006;stroke-linecap:square;stroke-linejoin:round;stroke-miterlimit:10;stroke-dasharray:none;stroke-opacity:1"
         id="path120"
         inkscape:connector-curvature="0" /><path
         d="M 7302.5,425 V 3972.5"
         style="fill:none;stroke:#262626;stroke-width:5.00250006;stroke-linecap:square;stroke-linejoin:round;stroke-miterlimit:10;stroke-dasharray:none;stroke-opacity:1"
         id="path122"
         inkscape:connector-curvature="0" /><path
         d="m 470,425 h 68.324"
         style="fill:none;stroke:#262626;stroke-width:5.00250006;stroke-linecap:square;stroke-linejoin:round;stroke-miterlimit:10;stroke-dasharray:none;stroke-opacity:1"
         id="path124"
         inkscape:connector-curvature="0" /><path
         d="m 470,1016.25 h 68.324"
         style="fill:none;stroke:#262626;stroke-width:5.00250006;stroke-linecap:square;stroke-linejoin:round;stroke-miterlimit:10;stroke-dasharray:none;stroke-opacity:1"
         id="path126"
         inkscape:connector-curvature="0" /><path
         d="m 470,1607.5 h 68.324"
         style="fill:none;stroke:#262626;stroke-width:5.00250006;stroke-linecap:square;stroke-linejoin:round;stroke-miterlimit:10;stroke-dasharray:none;stroke-opacity:1"
         id="path128"
         inkscape:connector-curvature="0" /><path
         d="m 470,2198.75 h 68.324"
         style="fill:none;stroke:#262626;stroke-width:5.00250006;stroke-linecap:square;stroke-linejoin:round;stroke-miterlimit:10;stroke-dasharray:none;stroke-opacity:1"
         id="path130"
         inkscape:connector-curvature="0" /><path
         d="m 470,2790 h 68.324"
         style="fill:none;stroke:#262626;stroke-width:5.00250006;stroke-linecap:square;stroke-linejoin:round;stroke-miterlimit:10;stroke-dasharray:none;stroke-opacity:1"
         id="path132"
         inkscape:connector-curvature="0" /><path
         d="m 470,3381.25 h 68.324"
         style="fill:none;stroke:#262626;stroke-width:5.00250006;stroke-linecap:square;stroke-linejoin:round;stroke-miterlimit:10;stroke-dasharray:none;stroke-opacity:1"
         id="path134"
         inkscape:connector-curvature="0" /><path
         d="m 470,3972.5 h 68.324"
         style="fill:none;stroke:#262626;stroke-width:5.00250006;stroke-linecap:square;stroke-linejoin:round;stroke-miterlimit:10;stroke-dasharray:none;stroke-opacity:1"
         id="path136"
         inkscape:connector-curvature="0" /><path
         d="m 7302.5,425 h -68.32"
         style="fill:none;stroke:#262626;stroke-width:5.00250006;stroke-linecap:square;stroke-linejoin:round;stroke-miterlimit:10;stroke-dasharray:none;stroke-opacity:1"
         id="path138"
         inkscape:connector-curvature="0" /><path
         d="m 7302.5,1016.25 h -68.32"
         style="fill:none;stroke:#262626;stroke-width:5.00250006;stroke-linecap:square;stroke-linejoin:round;stroke-miterlimit:10;stroke-dasharray:none;stroke-opacity:1"
         id="path140"
         inkscape:connector-curvature="0" /><path
         d="m 7302.5,1607.5 h -68.32"
         style="fill:none;stroke:#262626;stroke-width:5.00250006;stroke-linecap:square;stroke-linejoin:round;stroke-miterlimit:10;stroke-dasharray:none;stroke-opacity:1"
         id="path142"
         inkscape:connector-curvature="0" /><path
         d="m 7302.5,2198.75 h -68.32"
         style="fill:none;stroke:#262626;stroke-width:5.00250006;stroke-linecap:square;stroke-linejoin:round;stroke-miterlimit:10;stroke-dasharray:none;stroke-opacity:1"
         id="path144"
         inkscape:connector-curvature="0" /><path
         d="m 7302.5,2790 h -68.32"
         style="fill:none;stroke:#262626;stroke-width:5.00250006;stroke-linecap:square;stroke-linejoin:round;stroke-miterlimit:10;stroke-dasharray:none;stroke-opacity:1"
         id="path146"
         inkscape:connector-curvature="0" /><path
         d="m 7302.5,3381.25 h -68.32"
         style="fill:none;stroke:#262626;stroke-width:5.00250006;stroke-linecap:square;stroke-linejoin:round;stroke-miterlimit:10;stroke-dasharray:none;stroke-opacity:1"
         id="path148"
         inkscape:connector-curvature="0" /><path
         d="m 7302.5,3972.5 h -68.32"
         style="fill:none;stroke:#262626;stroke-width:5.00250006;stroke-linecap:square;stroke-linejoin:round;stroke-miterlimit:10;stroke-dasharray:none;stroke-opacity:1"
         id="path150"
         inkscape:connector-curvature="0" /><path
         d="m 221.641,416.773 v 9.262 h 39.726 v -9.262 h -39.726"
         style="fill:#262626;fill-opacity:1;fill-rule:nonzero;stroke:none"
         id="path152"
         inkscape:connector-curvature="0" /><path
         d="m 284.297,400.602 c 2.344,-3.438 5.488,-5.981 9.433,-7.618 3.946,-1.64 8.184,-2.461 12.711,-2.461 5.86,0 10.004,2.461 12.43,7.387 2.418,4.918 3.629,10.543 3.629,16.875 0,2.809 -0.254,5.641 -0.766,8.488 -0.504,2.856 -1.363,5.493 -2.57,7.915 -1.215,2.421 -2.894,4.371 -5.043,5.859 -2.148,1.484 -4.746,2.226 -7.789,2.226 h -9.961 c -0.859,0 -1.289,0.469 -1.289,1.411 v 1.289 c 0,0.781 0.43,1.168 1.289,1.168 l 8.317,0.707 c 3.515,0 6.425,1.308 8.73,3.922 2.305,2.617 4.004,5.816 5.102,9.609 1.089,3.789 1.632,7.402 1.632,10.844 0,4.765 -1.132,8.691 -3.398,11.773 -2.266,3.086 -5.703,4.629 -10.313,4.629 -3.75,0 -7.359,-0.723 -10.836,-2.168 -3.476,-1.445 -6.23,-3.652 -8.265,-6.621 0.16,0.078 0.316,0.141 0.473,0.18 0.156,0.035 0.308,0.05 0.464,0.05 2.27,0 4.164,-0.777 5.684,-2.339 1.527,-1.563 2.289,-3.481 2.289,-5.743 0,-2.113 -0.762,-3.945 -2.289,-5.507 -1.52,-1.563 -3.414,-2.348 -5.684,-2.348 -2.183,0 -4.058,0.785 -5.625,2.348 -1.558,1.562 -2.339,3.394 -2.339,5.507 0,4.297 1.289,8.047 3.871,11.25 2.574,3.204 5.914,5.625 10.019,7.266 4.098,1.641 8.18,2.461 12.238,2.461 3.051,0 6.258,-0.469 9.618,-1.402 3.355,-0.942 6.398,-2.25 9.132,-3.93 2.735,-1.68 4.985,-3.828 6.743,-6.445 1.757,-2.618 2.632,-5.606 2.632,-8.961 0,-4.219 -0.937,-8.11 -2.812,-11.664 -1.875,-3.555 -4.453,-6.637 -7.731,-9.254 -3.281,-2.621 -6.875,-4.555 -10.777,-5.805 4.293,-0.781 8.395,-2.398 12.301,-4.859 3.902,-2.465 7.047,-5.59 9.433,-9.375 2.383,-3.789 3.579,-7.914 3.579,-12.368 0,-5.472 -1.508,-10.449 -4.516,-14.941 -3.012,-4.488 -6.996,-7.984 -11.957,-10.484 -4.957,-2.5 -10.172,-3.75 -15.645,-3.75 -4.683,0 -9.371,0.898 -14.062,2.691 -4.684,1.797 -8.531,4.473 -11.543,8.027 -3.004,3.555 -4.504,7.832 -4.504,12.832 0,2.426 0.816,4.477 2.457,6.157 1.641,1.675 3.711,2.511 6.211,2.511 1.641,0 3.125,-0.367 4.457,-1.109 1.324,-0.738 2.379,-1.793 3.164,-3.164 0.777,-1.367 1.168,-2.832 1.168,-4.395 0,-2.5 -0.859,-4.57 -2.578,-6.21 -1.723,-1.641 -3.789,-2.461 -6.211,-2.461 h -0.703"
         style="fill:#262626;fill-opacity:1;fill-rule:nonzero;stroke:none"
         id="path154"
         inkscape:connector-curvature="0" /><path
         d="m 382.5,385.723 c -12.266,0 -20.605,5.039 -25.02,15.113 -4.414,10.078 -6.621,22.07 -6.621,35.977 0,8.671 0.801,16.855 2.407,24.554 1.597,7.696 4.742,14.219 9.425,19.567 4.692,5.351 11.293,8.027 19.809,8.027 6.559,0 11.949,-1.621 16.172,-4.859 4.219,-3.247 7.422,-7.426 9.605,-12.543 2.192,-5.118 3.696,-10.59 4.516,-16.411 0.82,-5.82 1.23,-11.929 1.23,-18.335 0,-8.594 -0.8,-16.641 -2.402,-24.141 -1.601,-7.5 -4.726,-13.871 -9.375,-19.106 -4.648,-5.23 -11.23,-7.843 -19.746,-7.843 z m 0,3.863 c 5.547,0 9.684,2.852 12.422,8.555 2.734,5.703 4.433,12.031 5.098,18.984 0.664,6.953 1,14.336 1,22.148 0,7.5 -0.336,14.434 -1,20.805 -0.665,6.363 -2.344,12.106 -5.04,17.227 -2.695,5.117 -6.855,7.672 -12.48,7.672 -5.625,0 -9.805,-2.579 -12.539,-7.731 -2.734,-5.16 -4.438,-10.902 -5.102,-17.23 -0.66,-6.328 -0.988,-13.243 -0.988,-20.743 0,-5.546 0.133,-10.796 0.402,-15.757 0.278,-4.965 1,-10.063 2.168,-15.293 1.176,-5.235 3.071,-9.649 5.688,-13.246 2.617,-3.594 6.078,-5.391 10.371,-5.391"
         style="fill:#262626;fill-opacity:1;fill-rule:nonzero;stroke:none"
         id="path156"
         inkscape:connector-curvature="0" /><path
         d="m 221.641,1008.02 v 9.27 h 39.726 v -9.27 h -39.726"
         style="fill:#262626;fill-opacity:1;fill-rule:nonzero;stroke:none"
         id="path158"
         inkscape:connector-curvature="0" /><path
         d="m 277.5,980.25 v 3.984 c 0,0.313 0.078,0.59 0.234,0.825 l 23.325,25.781 c 3.515,3.82 6.363,7.03 8.55,9.6 2.188,2.58 4.356,5.57 6.5,8.97 2.153,3.4 3.852,6.84 5.102,10.32 1.25,3.47 1.875,7.16 1.875,11.07 0,4.06 -0.762,7.97 -2.289,11.72 -1.52,3.75 -3.766,6.75 -6.734,9.02 -2.969,2.26 -6.602,3.4 -10.899,3.4 -4.301,0 -8.187,-1.31 -11.66,-3.92 -3.477,-2.63 -5.918,-6 -7.32,-10.14 0.39,0.07 0.898,0.12 1.523,0.12 2.262,0 4.195,-0.77 5.797,-2.29 1.598,-1.53 2.398,-3.5 2.398,-5.92 0,-2.27 -0.8,-4.2 -2.398,-5.8 -1.602,-1.6 -3.535,-2.4 -5.797,-2.4 -2.348,0 -4.301,0.82 -5.867,2.46 -1.559,1.63 -2.34,3.55 -2.34,5.74 0,3.83 0.703,7.39 2.109,10.66 1.403,3.28 3.438,6.21 6.098,8.8 2.652,2.57 5.66,4.54 9.02,5.91 3.359,1.37 6.918,2.05 10.668,2.05 5.699,0 11.011,-1.21 15.937,-3.63 4.918,-2.42 8.824,-5.84 11.715,-10.25 2.887,-4.42 4.332,-9.6 4.332,-15.53 0,-4.38 -0.953,-8.52 -2.863,-12.42 -1.914,-3.91 -4.36,-7.47 -7.328,-10.67 -2.969,-3.2 -6.778,-6.81 -11.422,-10.84 -4.653,-4.02 -7.68,-6.74 -9.082,-8.14 l -16.996,-16.292 h 14.414 c 7.031,0 12.929,0.058 17.695,0.179 4.762,0.117 7.305,0.289 7.617,0.524 1.172,1.25 2.383,5.863 3.633,13.829 h 4.332 l -4.215,-26.72 H 277.5"
         style="fill:#262626;fill-opacity:1;fill-rule:nonzero;stroke:none"
         id="path160"
         inkscape:connector-curvature="0" /><path
         d="m 382.5,976.973 c -12.266,0 -20.605,5.039 -25.02,15.113 -4.414,10.074 -6.621,22.074 -6.621,35.974 0,8.67 0.801,16.86 2.407,24.56 1.597,7.69 4.742,14.22 9.425,19.56 4.692,5.36 11.293,8.03 19.809,8.03 6.559,0 11.949,-1.62 16.172,-4.86 4.219,-3.24 7.422,-7.42 9.605,-12.54 2.192,-5.12 3.696,-10.59 4.516,-16.41 0.82,-5.82 1.23,-11.93 1.23,-18.34 0,-8.59 -0.8,-16.64 -2.402,-24.14 -1.601,-7.498 -4.726,-13.869 -9.375,-19.104 -4.648,-5.23 -11.23,-7.843 -19.746,-7.843 z m 0,3.863 c 5.547,0 9.684,2.852 12.422,8.555 2.734,5.703 4.433,12.029 5.098,18.989 0.664,6.95 1,14.33 1,22.14 0,7.5 -0.336,14.44 -1,20.81 -0.665,6.36 -2.344,12.1 -5.04,17.22 -2.695,5.12 -6.855,7.68 -12.48,7.68 -5.625,0 -9.805,-2.58 -12.539,-7.73 -2.734,-5.16 -4.438,-10.91 -5.102,-17.23 -0.66,-6.33 -0.988,-13.25 -0.988,-20.75 0,-5.54 0.133,-10.79 0.402,-15.75 0.278,-4.97 1,-10.07 2.168,-15.297 1.176,-5.235 3.071,-9.649 5.688,-13.246 2.617,-3.594 6.078,-5.391 10.371,-5.391"
         style="fill:#262626;fill-opacity:1;fill-rule:nonzero;stroke:none"
         id="path162"
         inkscape:connector-curvature="0" /><path
         d="m 221.641,1599.27 v 9.27 h 39.726 v -9.27 h -39.726"
         style="fill:#262626;fill-opacity:1;fill-rule:nonzero;stroke:none"
         id="path164"
         inkscape:connector-curvature="0" /><path
         d="m 283.941,1571.5 v 5.27 c 12.5,0 18.75,1.61 18.75,4.81 v 78.75 c -5.152,-2.5 -11.714,-3.75 -19.687,-3.75 v 5.27 c 12.266,0 21.523,3.2 27.773,9.61 h 2.118 c 0.386,0 0.738,-0.14 1.046,-0.41 0.317,-0.27 0.473,-0.6 0.473,-0.99 v -88.48 c 0,-3.2 6.25,-4.81 18.75,-4.81 v -5.27 h -49.223"
         style="fill:#262626;fill-opacity:1;fill-rule:nonzero;stroke:none"
         id="path166"
         inkscape:connector-curvature="0" /><path
         d="m 382.5,1568.22 c -12.266,0 -20.605,5.04 -25.02,15.12 -4.414,10.07 -6.621,22.07 -6.621,35.97 0,8.67 0.801,16.86 2.407,24.56 1.597,7.69 4.742,14.22 9.425,19.56 4.692,5.36 11.293,8.03 19.809,8.03 6.559,0 11.949,-1.62 16.172,-4.86 4.219,-3.24 7.422,-7.42 9.605,-12.54 2.192,-5.12 3.696,-10.59 4.516,-16.41 0.82,-5.82 1.23,-11.93 1.23,-18.34 0,-8.59 -0.8,-16.64 -2.402,-24.14 -1.601,-7.5 -4.726,-13.87 -9.375,-19.1 -4.648,-5.23 -11.23,-7.85 -19.746,-7.85 z m 0,3.87 c 5.547,0 9.684,2.85 12.422,8.55 2.734,5.7 4.433,12.03 5.098,18.99 0.664,6.95 1,14.33 1,22.14 0,7.5 -0.336,14.44 -1,20.81 -0.665,6.36 -2.344,12.1 -5.04,17.22 -2.695,5.12 -6.855,7.68 -12.48,7.68 -5.625,0 -9.805,-2.58 -12.539,-7.73 -2.734,-5.16 -4.438,-10.91 -5.102,-17.23 -0.66,-6.33 -0.988,-13.25 -0.988,-20.75 0,-5.54 0.133,-10.79 0.402,-15.75 0.278,-4.97 1,-10.07 2.168,-15.3 1.176,-5.23 3.071,-9.65 5.688,-13.24 2.617,-3.6 6.078,-5.39 10.371,-5.39"
         style="fill:#262626;fill-opacity:1;fill-rule:nonzero;stroke:none"
         id="path168"
         inkscape:connector-curvature="0" /><path
         d="m 382.5,2159.47 c -12.266,0 -20.605,5.04 -25.02,15.12 -4.414,10.07 -6.621,22.07 -6.621,35.97 0,8.67 0.801,16.86 2.407,24.56 1.597,7.69 4.742,14.22 9.425,19.56 4.692,5.36 11.293,8.03 19.809,8.03 6.559,0 11.949,-1.62 16.172,-4.86 4.219,-3.24 7.422,-7.42 9.605,-12.54 2.192,-5.12 3.696,-10.59 4.516,-16.41 0.82,-5.82 1.23,-11.93 1.23,-18.34 0,-8.59 -0.8,-16.64 -2.402,-24.14 -1.601,-7.5 -4.726,-13.87 -9.375,-19.1 -4.648,-5.23 -11.23,-7.85 -19.746,-7.85 z m 0,3.87 c 5.547,0 9.684,2.85 12.422,8.55 2.734,5.7 4.433,12.03 5.098,18.99 0.664,6.95 1,14.33 1,22.14 0,7.5 -0.336,14.44 -1,20.81 -0.665,6.36 -2.344,12.1 -5.04,17.22 -2.695,5.12 -6.855,7.68 -12.48,7.68 -5.625,0 -9.805,-2.58 -12.539,-7.73 -2.734,-5.16 -4.438,-10.91 -5.102,-17.23 -0.66,-6.33 -0.988,-13.25 -0.988,-20.75 0,-5.54 0.133,-10.79 0.402,-15.75 0.278,-4.97 1,-10.07 2.168,-15.3 1.176,-5.23 3.071,-9.65 5.688,-13.24 2.617,-3.6 6.078,-5.39 10.371,-5.39"
         style="fill:#262626;fill-opacity:1;fill-rule:nonzero;stroke:none"
         id="path170"
         inkscape:connector-curvature="0" /><path
         d="m 283.941,2754 v 5.27 c 12.5,0 18.75,1.61 18.75,4.81 v 78.75 c -5.152,-2.5 -11.714,-3.75 -19.687,-3.75 v 5.27 c 12.266,0 21.523,3.2 27.773,9.61 h 2.118 c 0.386,0 0.738,-0.14 1.046,-0.41 0.317,-0.27 0.473,-0.6 0.473,-0.99 v -88.48 c 0,-3.2 6.25,-4.81 18.75,-4.81 V 2754 h -49.223"
         style="fill:#262626;fill-opacity:1;fill-rule:nonzero;stroke:none"
         id="path172"
         inkscape:connector-curvature="0" /><path
         d="m 382.5,2750.72 c -12.266,0 -20.605,5.04 -25.02,15.12 -4.414,10.07 -6.621,22.07 -6.621,35.97 0,8.67 0.801,16.86 2.407,24.56 1.597,7.69 4.742,14.22 9.425,19.56 4.692,5.36 11.293,8.03 19.809,8.03 6.559,0 11.949,-1.62 16.172,-4.86 4.219,-3.24 7.422,-7.42 9.605,-12.54 2.192,-5.12 3.696,-10.59 4.516,-16.41 0.82,-5.82 1.23,-11.93 1.23,-18.34 0,-8.59 -0.8,-16.64 -2.402,-24.14 -1.601,-7.5 -4.726,-13.87 -9.375,-19.1 -4.648,-5.23 -11.23,-7.85 -19.746,-7.85 z m 0,3.87 c 5.547,0 9.684,2.85 12.422,8.55 2.734,5.7 4.433,12.03 5.098,18.99 0.664,6.95 1,14.33 1,22.14 0,7.5 -0.336,14.44 -1,20.81 -0.665,6.36 -2.344,12.1 -5.04,17.22 -2.695,5.12 -6.855,7.68 -12.48,7.68 -5.625,0 -9.805,-2.58 -12.539,-7.73 -2.734,-5.16 -4.438,-10.91 -5.102,-17.23 -0.66,-6.33 -0.988,-13.25 -0.988,-20.75 0,-5.54 0.133,-10.79 0.402,-15.75 0.278,-4.97 1,-10.07 2.168,-15.3 1.176,-5.23 3.071,-9.65 5.688,-13.24 2.617,-3.6 6.078,-5.39 10.371,-5.39"
         style="fill:#262626;fill-opacity:1;fill-rule:nonzero;stroke:none"
         id="path174"
         inkscape:connector-curvature="0" /><path
         d="m 277.5,3345.25 v 3.98 c 0,0.32 0.078,0.59 0.234,0.83 l 23.325,25.78 c 3.515,3.82 6.363,7.03 8.55,9.6 2.188,2.58 4.356,5.57 6.5,8.97 2.153,3.4 3.852,6.84 5.102,10.32 1.25,3.47 1.875,7.16 1.875,11.07 0,4.06 -0.762,7.97 -2.289,11.72 -1.52,3.75 -3.766,6.75 -6.734,9.02 -2.969,2.26 -6.602,3.4 -10.899,3.4 -4.301,0 -8.187,-1.31 -11.66,-3.92 -3.477,-2.63 -5.918,-6 -7.32,-10.14 0.39,0.08 0.898,0.12 1.523,0.12 2.262,0 4.195,-0.77 5.797,-2.29 1.598,-1.53 2.398,-3.5 2.398,-5.92 0,-2.27 -0.8,-4.2 -2.398,-5.8 -1.602,-1.6 -3.535,-2.4 -5.797,-2.4 -2.348,0 -4.301,0.82 -5.867,2.46 -1.559,1.63 -2.34,3.55 -2.34,5.74 0,3.83 0.703,7.39 2.109,10.67 1.403,3.27 3.438,6.2 6.098,8.79 2.652,2.57 5.66,4.54 9.02,5.91 3.359,1.37 6.918,2.05 10.668,2.05 5.699,0 11.011,-1.21 15.937,-3.63 4.918,-2.42 8.824,-5.84 11.715,-10.25 2.887,-4.42 4.332,-9.6 4.332,-15.53 0,-4.38 -0.953,-8.52 -2.863,-12.42 -1.914,-3.91 -4.36,-7.47 -7.328,-10.67 -2.969,-3.2 -6.778,-6.81 -11.422,-10.84 -4.653,-4.02 -7.68,-6.74 -9.082,-8.14 l -16.996,-16.29 h 14.414 c 7.031,0 12.929,0.06 17.695,0.18 4.762,0.11 7.305,0.29 7.617,0.52 1.172,1.25 2.383,5.86 3.633,13.83 h 4.332 l -4.215,-26.72 H 277.5"
         style="fill:#262626;fill-opacity:1;fill-rule:nonzero;stroke:none"
         id="path176"
         inkscape:connector-curvature="0" /><path
         d="m 382.5,3341.97 c -12.266,0 -20.605,5.04 -25.02,15.12 -4.414,10.07 -6.621,22.07 -6.621,35.97 0,8.67 0.801,16.86 2.407,24.56 1.597,7.69 4.742,14.22 9.425,19.56 4.692,5.36 11.293,8.03 19.809,8.03 6.559,0 11.949,-1.62 16.172,-4.86 4.219,-3.24 7.422,-7.42 9.605,-12.54 2.192,-5.12 3.696,-10.59 4.516,-16.41 0.82,-5.82 1.23,-11.93 1.23,-18.34 0,-8.59 -0.8,-16.64 -2.402,-24.14 -1.601,-7.5 -4.726,-13.87 -9.375,-19.1 -4.648,-5.23 -11.23,-7.85 -19.746,-7.85 z m 0,3.87 c 5.547,0 9.684,2.85 12.422,8.55 2.734,5.7 4.433,12.03 5.098,18.99 0.664,6.95 1,14.33 1,22.14 0,7.5 -0.336,14.44 -1,20.81 -0.665,6.36 -2.344,12.1 -5.04,17.22 -2.695,5.12 -6.855,7.68 -12.48,7.68 -5.625,0 -9.805,-2.58 -12.539,-7.73 -2.734,-5.16 -4.438,-10.91 -5.102,-17.23 -0.66,-6.33 -0.988,-13.25 -0.988,-20.75 0,-5.54 0.133,-10.79 0.402,-15.75 0.278,-4.97 1,-10.07 2.168,-15.3 1.176,-5.23 3.071,-9.65 5.688,-13.24 2.617,-3.6 6.078,-5.39 10.371,-5.39"
         style="fill:#262626;fill-opacity:1;fill-rule:nonzero;stroke:none"
         id="path178"
         inkscape:connector-curvature="0" /><path
         d="m 284.297,3948.1 c 2.344,-3.44 5.488,-5.98 9.433,-7.62 3.946,-1.64 8.184,-2.46 12.711,-2.46 5.86,0 10.004,2.46 12.43,7.39 2.418,4.92 3.629,10.55 3.629,16.88 0,2.8 -0.254,5.64 -0.766,8.48 -0.504,2.86 -1.363,5.5 -2.57,7.92 -1.215,2.42 -2.894,4.37 -5.043,5.86 -2.148,1.48 -4.746,2.22 -7.789,2.22 h -9.961 c -0.859,0 -1.289,0.47 -1.289,1.41 v 1.29 c 0,0.78 0.43,1.17 1.289,1.17 l 8.317,0.71 c 3.515,0 6.425,1.31 8.73,3.92 2.305,2.62 4.004,5.82 5.102,9.61 1.089,3.79 1.632,7.4 1.632,10.84 0,4.77 -1.132,8.69 -3.398,11.78 -2.266,3.08 -5.703,4.63 -10.313,4.63 -3.75,0 -7.359,-0.73 -10.836,-2.17 -3.476,-1.45 -6.23,-3.66 -8.265,-6.62 0.16,0.07 0.316,0.14 0.473,0.18 0.156,0.03 0.308,0.05 0.464,0.05 2.27,0 4.164,-0.78 5.684,-2.34 1.527,-1.57 2.289,-3.48 2.289,-5.75 0,-2.11 -0.762,-3.94 -2.289,-5.5 -1.52,-1.57 -3.414,-2.35 -5.684,-2.35 -2.183,0 -4.058,0.78 -5.625,2.35 -1.558,1.56 -2.339,3.39 -2.339,5.5 0,4.3 1.289,8.05 3.871,11.25 2.574,3.21 5.914,5.63 10.019,7.27 4.098,1.64 8.18,2.46 12.238,2.46 3.051,0 6.258,-0.47 9.618,-1.4 3.355,-0.94 6.398,-2.25 9.132,-3.93 2.735,-1.68 4.985,-3.83 6.743,-6.45 1.757,-2.61 2.632,-5.6 2.632,-8.96 0,-4.22 -0.937,-8.11 -2.812,-11.66 -1.875,-3.56 -4.453,-6.64 -7.731,-9.26 -3.281,-2.62 -6.875,-4.55 -10.777,-5.8 4.293,-0.78 8.395,-2.4 12.301,-4.86 3.902,-2.46 7.047,-5.59 9.433,-9.37 2.383,-3.79 3.579,-7.92 3.579,-12.37 0,-5.47 -1.508,-10.45 -4.516,-14.94 -3.012,-4.49 -6.996,-7.99 -11.957,-10.49 -4.957,-2.5 -10.172,-3.75 -15.645,-3.75 -4.683,0 -9.371,0.9 -14.062,2.69 -4.684,1.8 -8.531,4.48 -11.543,8.03 -3.004,3.56 -4.504,7.83 -4.504,12.83 0,2.43 0.816,4.48 2.457,6.16 1.641,1.68 3.711,2.51 6.211,2.51 1.641,0 3.125,-0.37 4.457,-1.11 1.324,-0.74 2.379,-1.79 3.164,-3.16 0.777,-1.37 1.168,-2.83 1.168,-4.4 0,-2.5 -0.859,-4.57 -2.578,-6.21 -1.723,-1.64 -3.789,-2.46 -6.211,-2.46 h -0.703"
         style="fill:#262626;fill-opacity:1;fill-rule:nonzero;stroke:none"
         id="path180"
         inkscape:connector-curvature="0" /><path
         d="m 382.5,3933.22 c -12.266,0 -20.605,5.04 -25.02,15.12 -4.414,10.07 -6.621,22.07 -6.621,35.97 0,8.67 0.801,16.86 2.407,24.56 1.597,7.69 4.742,14.22 9.425,19.56 4.692,5.36 11.293,8.03 19.809,8.03 6.559,0 11.949,-1.62 16.172,-4.86 4.219,-3.24 7.422,-7.42 9.605,-12.54 2.192,-5.12 3.696,-10.59 4.516,-16.41 0.82,-5.82 1.23,-11.93 1.23,-18.34 0,-8.59 -0.8,-16.64 -2.402,-24.14 -1.601,-7.5 -4.726,-13.87 -9.375,-19.1 -4.648,-5.23 -11.23,-7.85 -19.746,-7.85 z m 0,3.87 c 5.547,0 9.684,2.85 12.422,8.55 2.734,5.7 4.433,12.03 5.098,18.99 0.664,6.95 1,14.33 1,22.14 0,7.5 -0.336,14.44 -1,20.81 -0.665,6.36 -2.344,12.1 -5.04,17.22 -2.695,5.12 -6.855,7.68 -12.48,7.68 -5.625,0 -9.805,-2.58 -12.539,-7.73 -2.734,-5.16 -4.438,-10.91 -5.102,-17.23 -0.66,-6.33 -0.988,-13.25 -0.988,-20.75 0,-5.54 0.133,-10.79 0.402,-15.75 0.278,-4.97 1,-10.07 2.168,-15.3 1.176,-5.23 3.071,-9.65 5.688,-13.24 2.617,-3.6 6.078,-5.39 10.371,-5.39"
         style="fill:#262626;fill-opacity:1;fill-rule:nonzero;stroke:none"
         id="path182"
         inkscape:connector-curvature="0" /><path
         d="m 162.941,2076.31 c -2.5,0 -6.113,0.54 -10.839,1.63 -4.723,1.1 -9.766,2.44 -15.122,4.04 -5.347,1.61 -9.742,2.96 -13.175,4.06 -5.469,0.46 -9.614,0.69 -12.426,0.69 -7.031,0 -13.5938,-0.7 -19.6876,-2.1 -6.0898,-1.41 -11.207,-4.05 -15.3476,-7.92 -4.1446,-3.86 -6.2149,-9.23 -6.2149,-16.11 0,-3.67 0.7813,-7.32 2.3477,-10.96 1.5586,-3.63 3.7461,-6.76 6.5625,-9.37 2.8086,-2.62 5.9726,-4.39 9.4922,-5.33 0.625,-0.24 0.9375,-0.67 0.9375,-1.29 v -1.99 c 0,-0.86 -0.4688,-1.29 -1.4102,-1.29 h -0.582 c -4.9219,1.25 -9.6875,3.44 -14.2969,6.56 -4.6094,3.13 -8.3438,6.95 -11.1992,11.48 -2.8477,4.54 -4.2735,9.34 -4.2735,14.42 0,5.15 1.7383,9.61 5.211,13.36 3.4804,3.75 7.9179,6.76 13.3086,9.02 5.3867,2.26 10.8164,3.89 16.289,4.87 5.4688,0.97 10.6254,1.46 15.4644,1.46 -15.0737,5.55 -29.3316,11.75 -42.773,18.63 l -5.2734,2.46 c -0.3086,0.32 -0.4648,0.71 -0.4648,1.18 v 1.98 c 0,0.86 0.5078,1.3 1.5234,1.3 0.2344,0 0.5469,-0.13 0.9375,-0.36 l 5.1523,-2.46 c 9.5313,-4.76 19.1797,-9.16 28.9493,-13.18 9.7657,-4.02 19.1797,-7.44 28.2387,-10.25 3.75,-0.39 8.847,-1.2 15.293,-2.41 6.445,-1.21 12.441,-2.67 17.992,-4.39 5.547,-1.72 8.433,-3.44 8.672,-5.16 0,-1.72 -1.098,-2.57 -3.286,-2.57"
         style="fill:#262626;fill-opacity:1;fill-rule:nonzero;stroke:none"
         id="path184"
         inkscape:connector-curvature="0" /><path
         d="m 171.496,2228.47 c -4.844,-6.17 -10.391,-11.46 -16.641,-15.87 -6.25,-4.42 -12.91,-8.03 -19.98,-10.85 -7.07,-2.81 -14.473,-4.91 -22.207,-6.32 -7.734,-1.41 -15.5078,-2.12 -23.3164,-2.12 -7.8907,0 -15.7032,0.71 -23.4375,2.12 -7.7383,1.41 -15.1797,3.53 -22.3282,6.38 -7.1445,2.86 -13.8281,6.51 -20.0429,10.96 -6.2071,4.45 -11.6563,9.69 -16.33987,15.7 -0.23438,0 -0.35157,0.24 -0.35157,0.71 v 1.63 c 0,0.32 0.15235,0.62 0.46485,0.89 0.3125,0.27 0.625,0.41 0.9375,0.41 0.54687,0 0.90234,-0.12 1.05468,-0.36 5.31641,-5.39 10.98051,-9.86 16.99611,-13.41 6.0156,-3.56 12.4219,-6.43 19.2148,-8.62 6.8008,-2.18 13.8321,-3.77 21.0977,-4.74 7.2656,-0.98 14.8437,-1.46 22.7344,-1.46 35.0004,0 61.5624,9.33 79.6874,28 0.309,0.39 0.777,0.59 1.402,0.59 0.235,0 0.528,-0.16 0.883,-0.47 0.352,-0.32 0.528,-0.59 0.528,-0.83 v -1.63 c 0,-0.47 -0.122,-0.71 -0.356,-0.71"
         style="fill:#262626;fill-opacity:1;fill-rule:nonzero;stroke:none"
         id="path186"
         inkscape:connector-curvature="0" /><path
         d="m 72.0078,2264.05 c 0,-3.52 -0.8398,-6.66 -2.5195,-9.44 -1.6797,-2.77 -3.9453,-4.91 -6.793,-6.44 -2.8515,-1.53 -6.1133,-2.29 -9.789,-2.29 -5.0743,0 -10.1133,1.43 -15.1133,4.28 -5,2.86 -9.043,6.64 -12.1328,11.37 -3.086,4.72 -4.6289,9.67 -4.6289,14.83 0,2.73 0.4726,5.19 1.4101,7.37 0.9375,2.2 2.2617,4.09 3.9844,5.69 1.7187,1.6 3.7305,2.83 6.0351,3.69 2.3047,0.86 4.8282,1.29 7.5625,1.29 3.9024,0 7.75,-0.82 11.543,-2.46 3.7852,-1.64 7.2227,-3.89 10.3125,-6.74 3.082,-2.85 5.543,-6.13 7.3789,-9.84 1.836,-3.71 2.75,-7.48 2.75,-11.31 z m -3.043,0.23 c 0,3.36 -1.1328,6.41 -3.3984,9.14 -2.2656,2.74 -5.1172,5 -8.5586,6.79 -3.4336,1.81 -7.0859,3.17 -10.957,4.11 -3.8633,0.94 -7.3594,1.41 -10.4844,1.41 -3.2031,0 -5.9375,-0.8 -8.2031,-2.41 -2.2656,-1.6 -3.3985,-4 -3.3985,-7.21 0,-4.37 1.875,-8.22 5.625,-11.54 3.75,-3.32 8.2227,-5.8 13.418,-7.44 5.1953,-1.64 9.9805,-2.46 14.3555,-2.46 3.2031,0 5.9375,0.82 8.2031,2.46 2.2656,1.64 3.3984,4.02 3.3984,7.15"
         style="fill:#262626;fill-opacity:1;fill-rule:nonzero;stroke:none"
         id="path188"
         inkscape:connector-curvature="0" /><path
         d="m 171.852,2316.33 c 0,-0.94 -0.473,-1.4 -1.411,-1.4 -0.546,0 -0.898,0.11 -1.05,0.34 -18.36,18.75 -45.039,28.13 -80.0394,28.13 -35,0 -61.5625,-9.26 -79.68754,-27.77 -0.23828,-0.47 -0.70703,-0.7 -1.41015,-0.7 -0.3125,0 -0.625,0.15 -0.9375,0.46 -0.3125,0.32 -0.46485,0.63 -0.46485,0.94 v 1.64 c 0,0.31 0.11719,0.55 0.35157,0.71 6.16797,7.89 13.72657,14.47 22.67187,19.74 8.9453,5.27 18.457,9.14 28.5391,11.6 10.0781,2.46 20.3906,3.69 30.9375,3.69 7.8086,0 15.4844,-0.66 23.0234,-1.99 7.539,-1.33 14.98,-3.42 22.328,-6.27 7.344,-2.85 14.102,-6.48 20.274,-10.9 6.168,-4.41 11.675,-9.7 16.519,-15.87 0.234,-0.16 0.356,-0.4 0.356,-0.71 v -1.64"
         style="fill:#262626;fill-opacity:1;fill-rule:nonzero;stroke:none"
         id="path190"
         inkscape:connector-curvature="0" /><path
         d="m 470,758.137 69.016,15.304 69.015,15.782 69.016,16.254 69.012,16.738 69.015,17.234 69.016,17.746 69.015,18.27 69.015,18.789 69.02,19.328 69.01,19.875 69.01,20.43 69.02,20.992 69.02,21.57 69.01,22.151 69.02,22.74 69.01,23.35 69.01,23.95 69.02,24.56 69.02,25.19 69.01,25.82 69.02,26.44 69.01,27.08 69.01,27.73 69.02,28.38 69.02,29.01 69.02,29.67 69.01,30.32 69.02,30.97 69.01,31.62 69.02,32.25 69.01,32.9 69.02,33.53 69.01,34.16 69.02,34.77 69.01,35.37 69.02,35.97 69.01,36.56 69.02,37.11 69.01,37.68 69.02,38.2 69.01,38.7 69.02,39.21 69.01,39.66 69.02,40.1 69.01,40.51 69.02,40.9 69.01,41.26 69.02,41.58 69.01,41.86 69.02,42.14 69.01,42.35 69.02,42.54 69.01,42.7 69.02,42.81 69.01,42.89 69.02,42.94 69.01,42.94 69.02,42.89 69.01,42.84 69.02,42.72 69.01,42.58 69.02,42.38 69.01,42.18 69.02,41.91 69.01,41.64 69.02,41.31 69.01,40.95 69.02,40.56 69.01,40.15 69.02,39.71 69.01,39.24 69.02,38.74 69.01,38.22 69.03,37.67 69,37.11 69.03,36.52 69.01,35.91 69.01,35.3 69.02,34.66 69.01,34.02 69.02,33.35 69.02,32.67 69.01,31.99 69.01,31.31 69.02,30.61 69.01,29.89 69.02,29.2 69.02,28.48 69.01,27.76 69.02,27.05 69.01,26.34 69.01,25.62 69.02,24.9 69.02,24.19 69.01,23.48 69.02,22.78 69.01,22.08 69.01,21.38 69.02,20.69"
         style="fill:none;stroke:#0072bd;stroke-width:20.00250053;stroke-linecap:butt;stroke-linejoin:round;stroke-miterlimit:10;stroke-dasharray:none;stroke-opacity:1"
         id="path192"
         inkscape:connector-curvature="0" /><path
         d="m 470,425 69.016,35.836 69.015,35.836 69.016,35.824 69.012,35.836 69.015,35.836 69.016,35.836 69.015,35.828 69.015,35.832 69.02,35.836 69.01,35.836 69.01,35.836 69.02,35.824 69.02,35.836 69.01,35.836 69.02,35.836 69.01,35.828 69.01,35.828 69.02,35.84 69.02,35.84 69.01,35.83 69.02,35.83 69.01,35.83 69.01,35.84 69.02,35.83 69.02,35.83 69.02,35.83 69.01,35.84 69.02,35.84 69.01,35.83 69.02,35.83 69.01,35.83 69.02,35.84 69.01,35.83 69.02,35.83 69.01,35.83 69.02,35.84 69.01,35.84 69.02,35.83 69.01,35.83 69.02,35.83 69.01,35.84 69.02,35.83 69.01,35.83 69.02,35.83 69.01,35.84 69.02,35.84 69.01,35.83 69.02,35.83 69.01,35.83 69.02,35.84 69.01,35.83 69.02,35.83 69.01,35.83 69.02,35.84 69.01,35.84 69.02,35.83 69.01,35.83 69.02,35.83 69.01,35.84 69.02,35.83 69.01,35.83 69.02,35.83 69.01,35.84 69.02,35.84 69.01,35.83 69.02,35.83 69.01,35.83 69.02,35.84 69.01,35.83 69.02,35.83 69.01,35.83 69.02,35.84 69.01,35.84 69.03,35.83 69,35.83 69.03,35.83 69.01,35.84 69.01,35.83 69.02,35.83 69.01,35.83 69.02,35.84 69.02,35.84 69.01,35.83 69.01,35.83 69.02,35.83 69.01,35.84 69.02,35.83 69.02,35.83 69.01,35.83 69.02,35.84 69.01,35.84 69.01,35.83 69.02,35.83 69.02,35.83 69.01,35.84 69.02,35.83 69.01,35.83 69.01,35.83 69.02,35.84"
         style="fill:none;stroke:#d95319;stroke-width:20.00250053;stroke-linecap:butt;stroke-linejoin:round;stroke-miterlimit:10;stroke-dasharray:none;stroke-opacity:1"
         id="path194"
         inkscape:connector-curvature="0" /></g><path
       style="fill:none;stroke:#000000;stroke-width:0.75px;stroke-linecap:butt;stroke-linejoin:miter;stroke-opacity:1;marker-end:url(#Arrow1Lend)"
       d="m 542.94974,246.31091 v 53.86596"
       id="path1020"
       inkscape:connector-curvature="0" /><path
       style="fill:none;stroke:#000000;stroke-width:0.75px;stroke-linecap:butt;stroke-linejoin:miter;stroke-opacity:1;marker-start:url(#Arrow1Lstart);marker-end:"
       d="m 542.94974,313.51406 v 53.86596"
       id="path1020-3"
       inkscape:connector-curvature="0" /><rect
       style="fill:#e13b0f;fill-opacity:1;stroke:#000000;stroke-width:1.125;stroke-miterlimit:4;stroke-dasharray:none;stroke-dashoffset:0;stroke-opacity:1"
       id="rect1905"
       width="18.830509"
       height="18.830509"
       x="438.50385"
       y="-128.52901"
       transform="scale(1,-1)" /><rect
       style="fill:#004b88;fill-opacity:1;stroke:#000000;stroke-width:1.125;stroke-miterlimit:4;stroke-dasharray:none;stroke-dashoffset:0;stroke-opacity:1"
       id="rect1905-7"
       width="18.830509"
       height="18.830509"
       x="439.71432"
       y="-94.018158"
       transform="scale(1,-1)" /><g
       id="g1404"
       ns1:jacobian_sqrt="2.0"
       inkscapeversion="0.92.4"
       ns1:alignment="middle center"
       ns1:scale="1.5"
       ns1:preamble="/home/iasbeck/.config/inkscape/extensions/textext/default_packages.tex"
       ns1:text="Resposta real"
       ns1:pdfconverter="pdf2svg"
       ns1:texconverter="pdflatex"
       ns1:version="0.11.0"
       transform="matrix(2,0,0,-2,172.40865,383.65938)"><g
         id="g1402"><g
           id="g1380"
           style="fill:#000000;fill-opacity:1"><path
             id="path1372"
             transform="translate(148.712,134.765)"
             d="M 2.234375,-3.515625 V -6.09375 c 0,-0.234375 0,-0.359375 0.21875,-0.390625 C 2.546875,-6.5 2.84375,-6.5 3.046875,-6.5 c 0.890625,0 2,0.046875 2,1.484375 0,0.6875 -0.234375,1.5 -1.703125,1.5 z m 2.109375,0.125 C 5.296875,-3.625 6.078125,-4.234375 6.078125,-5.015625 6.078125,-5.96875 4.9375,-6.8125 3.484375,-6.8125 H 0.34375 V -6.5 h 0.25 c 0.765625,0 0.78125,0.109375 0.78125,0.46875 v 5.25 c 0,0.359375 -0.015625,0.46875 -0.78125,0.46875 h -0.25 V 0 c 0.359375,-0.03125 1.078125,-0.03125 1.453125,-0.03125 0.390625,0 1.109375,0 1.46875,0.03125 v -0.3125 h -0.25 c -0.765625,0 -0.78125,-0.109375 -0.78125,-0.46875 V -3.296875 H 3.375 c 0.15625,0 0.578125,0 0.9375,0.34375 0.375,0.34375 0.375,0.65625 0.375,1.328125 0,0.640625 0,1.046875 0.40625,1.421875 0.40625,0.359375 0.953125,0.421875 1.25,0.421875 0.78125,0 0.953125,-0.8125 0.953125,-1.09375 0,-0.0625 0,-0.171875 -0.125,-0.171875 -0.109375,0 -0.109375,0.09375 -0.125,0.15625 C 6.984375,-0.171875 6.640625,0 6.390625,0 5.90625,0 5.828125,-0.515625 5.6875,-1.4375 L 5.546875,-2.234375 C 5.375,-2.875 4.890625,-3.203125 4.34375,-3.390625 Z m 0,0"
             style="stroke:none;stroke-width:0"
             inkscape:connector-curvature="0" /><path
             id="path1374"
             transform="translate(156.04547,134.765)"
             d="M 1.109375,-2.515625 C 1.171875,-4 2.015625,-4.25 2.359375,-4.25 c 1.015625,0 1.125,1.34375 1.125,1.734375 z m 0,0.21875 h 2.78125 c 0.21875,0 0.25,0 0.25,-0.21875 0,-0.984375 -0.546875,-1.953125 -1.78125,-1.953125 -1.15625,0 -2.078125,1.03125 -2.078125,2.28125 0,1.328125 1.046875,2.296875 2.1875,2.296875 C 3.6875,0.109375 4.140625,-1 4.140625,-1.1875 4.140625,-1.28125 4.0625,-1.3125 4,-1.3125 c -0.078125,0 -0.109375,0.0625 -0.125,0.140625 -0.34375,1.03125 -1.25,1.03125 -1.34375,1.03125 -0.5,0 -0.890625,-0.296875 -1.125,-0.671875 -0.296875,-0.46875 -0.296875,-1.125 -0.296875,-1.484375 z m 0,0"
             style="stroke:none;stroke-width:0"
             inkscape:connector-curvature="0" /><path
             id="path1376"
             transform="translate(160.47285,134.765)"
             d="m 2.078125,-1.9375 c 0.21875,0.046875 1.03125,0.203125 1.03125,0.921875 0,0.5 -0.34375,0.90625 -1.125,0.90625 -0.84375,0 -1.203125,-0.5625 -1.390625,-1.421875 C 0.5625,-1.65625 0.5625,-1.6875 0.453125,-1.6875 c -0.125,0 -0.125,0.0625 -0.125,0.234375 V -0.125 c 0,0.171875 0,0.234375 0.109375,0.234375 0.046875,0 0.0625,-0.015625 0.25,-0.203125 0.015625,-0.015625 0.015625,-0.03125 0.203125,-0.21875 0.4375,0.40625 0.890625,0.421875 1.09375,0.421875 1.140625,0 1.609375,-0.671875 1.609375,-1.390625 0,-0.515625 -0.296875,-0.828125 -0.421875,-0.9375 C 2.84375,-2.546875 2.453125,-2.625 2.03125,-2.703125 1.46875,-2.8125 0.8125,-2.9375 0.8125,-3.515625 c 0,-0.359375 0.25,-0.765625 1.109375,-0.765625 1.09375,0 1.15625,0.90625 1.171875,1.203125 0,0.09375 0.09375,0.09375 0.109375,0.09375 0.140625,0 0.140625,-0.046875 0.140625,-0.234375 v -1.015625 c 0,-0.15625 0,-0.234375 -0.109375,-0.234375 -0.046875,0 -0.078125,0 -0.203125,0.125 -0.03125,0.03125 -0.125,0.125 -0.171875,0.15625 -0.375,-0.28125 -0.78125,-0.28125 -0.9375,-0.28125 -1.21875,0 -1.59375,0.671875 -1.59375,1.234375 0,0.34375 0.15625,0.625 0.421875,0.84375 0.328125,0.25 0.609375,0.3125 1.328125,0.453125 z m 0,0"
             style="stroke:none;stroke-width:0"
             inkscape:connector-curvature="0" /><path
             id="path1378"
             transform="translate(164.4021,134.765)"
             d="m 1.71875,-3.75 v -0.65625 l -1.4375,0.109375 v 0.3125 c 0.703125,0 0.78125,0.0625 0.78125,0.5 v 4.65625 C 1.0625,1.625 0.953125,1.625 0.28125,1.625 V 1.9375 C 0.625,1.921875 1.140625,1.90625 1.390625,1.90625 c 0.28125,0 0.78125,0.015625 1.125,0.03125 V 1.625 C 1.859375,1.625 1.75,1.625 1.75,1.171875 V -0.59375 c 0.046875,0.171875 0.46875,0.703125 1.21875,0.703125 1.1875,0 2.21875,-0.984375 2.21875,-2.265625 0,-1.265625 -0.953125,-2.25 -2.078125,-2.25 -0.78125,0 -1.203125,0.4375 -1.390625,0.65625 z M 1.75,-1.140625 v -2.21875 C 2.03125,-3.875 2.515625,-4.15625 3.03125,-4.15625 c 0.734375,0 1.328125,0.875 1.328125,2 0,1.203125 -0.6875,2.046875 -1.421875,2.046875 -0.40625,0 -0.78125,-0.203125 -1.046875,-0.609375 C 1.75,-0.921875 1.75,-0.9375 1.75,-1.140625 Z m 0,0"
             style="stroke:none;stroke-width:0"
             inkscape:connector-curvature="0" /></g><g
           id="g1390"
           style="fill:#000000;fill-opacity:1"><path
             id="path1382"
             transform="translate(170.21627,134.765)"
             d="M 4.6875,-2.140625 C 4.6875,-3.40625 3.703125,-4.46875 2.5,-4.46875 c -1.25,0 -2.21875,1.09375 -2.21875,2.328125 0,1.296875 1.03125,2.25 2.203125,2.25 1.203125,0 2.203125,-0.984375 2.203125,-2.25 z m -2.1875,2 c -0.4375,0 -0.875,-0.203125 -1.140625,-0.671875 -0.25,-0.4375 -0.25,-1.046875 -0.25,-1.40625 0,-0.390625 0,-0.921875 0.234375,-1.359375 C 1.609375,-4.03125 2.078125,-4.25 2.484375,-4.25 c 0.4375,0 0.859375,0.21875 1.125,0.65625 0.265625,0.421875 0.265625,1 0.265625,1.375 0,0.359375 0,0.90625 -0.21875,1.34375 C 3.421875,-0.421875 2.984375,-0.140625 2.5,-0.140625 Z m 0,0"
             style="stroke:none;stroke-width:0"
             inkscape:connector-curvature="0" /><path
             id="path1384"
             transform="translate(175.19757,134.765)"
             d="m 2.078125,-1.9375 c 0.21875,0.046875 1.03125,0.203125 1.03125,0.921875 0,0.5 -0.34375,0.90625 -1.125,0.90625 -0.84375,0 -1.203125,-0.5625 -1.390625,-1.421875 C 0.5625,-1.65625 0.5625,-1.6875 0.453125,-1.6875 c -0.125,0 -0.125,0.0625 -0.125,0.234375 V -0.125 c 0,0.171875 0,0.234375 0.109375,0.234375 0.046875,0 0.0625,-0.015625 0.25,-0.203125 0.015625,-0.015625 0.015625,-0.03125 0.203125,-0.21875 0.4375,0.40625 0.890625,0.421875 1.09375,0.421875 1.140625,0 1.609375,-0.671875 1.609375,-1.390625 0,-0.515625 -0.296875,-0.828125 -0.421875,-0.9375 C 2.84375,-2.546875 2.453125,-2.625 2.03125,-2.703125 1.46875,-2.8125 0.8125,-2.9375 0.8125,-3.515625 c 0,-0.359375 0.25,-0.765625 1.109375,-0.765625 1.09375,0 1.15625,0.90625 1.171875,1.203125 0,0.09375 0.09375,0.09375 0.109375,0.09375 0.140625,0 0.140625,-0.046875 0.140625,-0.234375 v -1.015625 c 0,-0.15625 0,-0.234375 -0.109375,-0.234375 -0.046875,0 -0.078125,0 -0.203125,0.125 -0.03125,0.03125 -0.125,0.125 -0.171875,0.15625 -0.375,-0.28125 -0.78125,-0.28125 -0.9375,-0.28125 -1.21875,0 -1.59375,0.671875 -1.59375,1.234375 0,0.34375 0.15625,0.625 0.421875,0.84375 0.328125,0.25 0.609375,0.3125 1.328125,0.453125 z m 0,0"
             style="stroke:none;stroke-width:0"
             inkscape:connector-curvature="0" /><path
             id="path1386"
             transform="translate(179.12682,134.765)"
             d="m 1.71875,-3.984375 h 1.4375 v -0.3125 H 1.71875 V -6.125 h -0.25 c 0,0.8125 -0.296875,1.875 -1.28125,1.921875 v 0.21875 h 0.84375 v 2.75 c 0,1.21875 0.9375,1.34375 1.296875,1.34375 0.703125,0 0.984375,-0.703125 0.984375,-1.34375 v -0.5625 h -0.25 V -1.25 c 0,0.734375 -0.296875,1.109375 -0.671875,1.109375 -0.671875,0 -0.671875,-0.90625 -0.671875,-1.078125 z m 0,0"
             style="stroke:none;stroke-width:0"
             inkscape:connector-curvature="0" /><path
             id="path1388"
             transform="translate(183.00128,134.765)"
             d="m 3.3125,-0.75 c 0.046875,0.390625 0.3125,0.8125 0.78125,0.8125 0.21875,0 0.828125,-0.140625 0.828125,-0.953125 v -0.5625 h -0.25 v 0.5625 c 0,0.578125 -0.25,0.640625 -0.359375,0.640625 -0.328125,0 -0.375,-0.453125 -0.375,-0.5 v -1.984375 c 0,-0.421875 0,-0.8125 -0.359375,-1.1875 C 3.1875,-4.3125 2.6875,-4.46875 2.21875,-4.46875 c -0.828125,0 -1.515625,0.46875 -1.515625,1.125 0,0.296875 0.203125,0.46875 0.46875,0.46875 0.28125,0 0.453125,-0.203125 0.453125,-0.453125 0,-0.125 -0.046875,-0.453125 -0.515625,-0.453125 C 1.390625,-4.140625 1.875,-4.25 2.1875,-4.25 c 0.5,0 1.0625,0.390625 1.0625,1.28125 v 0.359375 c -0.515625,0.03125 -1.203125,0.0625 -1.828125,0.359375 -0.75,0.34375 -1,0.859375 -1,1.296875 0,0.8125 0.96875,1.0625 1.59375,1.0625 0.65625,0 1.109375,-0.40625 1.296875,-0.859375 z M 3.25,-2.390625 v 1 c 0,0.9375 -0.71875,1.28125 -1.171875,1.28125 -0.484375,0 -0.890625,-0.34375 -0.890625,-0.84375 0,-0.546875 0.421875,-1.375 2.0625,-1.4375 z m 0,0"
             style="stroke:none;stroke-width:0"
             inkscape:connector-curvature="0" /></g><g
           id="g1400"
           style="fill:#000000;fill-opacity:1"><path
             id="path1392"
             transform="translate(191.30012,134.765)"
             d="M 1.671875,-3.3125 V -4.40625 L 0.28125,-4.296875 v 0.3125 c 0.703125,0 0.78125,0.0625 0.78125,0.5625 V -0.75 c 0,0.4375 -0.109375,0.4375 -0.78125,0.4375 V 0 c 0.390625,-0.015625 0.859375,-0.03125 1.140625,-0.03125 0.390625,0 0.859375,0 1.265625,0.03125 V -0.3125 H 2.46875 c -0.734375,0 -0.75,-0.109375 -0.75,-0.46875 V -2.3125 c 0,-0.984375 0.421875,-1.875 1.171875,-1.875 0.0625,0 0.09375,0 0.109375,0.015625 -0.03125,0 -0.234375,0.125 -0.234375,0.390625 0,0.265625 0.21875,0.421875 0.4375,0.421875 0.171875,0 0.421875,-0.125 0.421875,-0.4375 0,-0.3125 -0.3125,-0.609375 -0.734375,-0.609375 -0.734375,0 -1.09375,0.671875 -1.21875,1.09375 z m 0,0"
             style="stroke:none;stroke-width:0"
             inkscape:connector-curvature="0" /><path
             id="path1394"
             transform="translate(195.20247,134.765)"
             d="M 1.109375,-2.515625 C 1.171875,-4 2.015625,-4.25 2.359375,-4.25 c 1.015625,0 1.125,1.34375 1.125,1.734375 z m 0,0.21875 h 2.78125 c 0.21875,0 0.25,0 0.25,-0.21875 0,-0.984375 -0.546875,-1.953125 -1.78125,-1.953125 -1.15625,0 -2.078125,1.03125 -2.078125,2.28125 0,1.328125 1.046875,2.296875 2.1875,2.296875 C 3.6875,0.109375 4.140625,-1 4.140625,-1.1875 4.140625,-1.28125 4.0625,-1.3125 4,-1.3125 c -0.078125,0 -0.109375,0.0625 -0.125,0.140625 -0.34375,1.03125 -1.25,1.03125 -1.34375,1.03125 -0.5,0 -0.890625,-0.296875 -1.125,-0.671875 -0.296875,-0.46875 -0.296875,-1.125 -0.296875,-1.484375 z m 0,0"
             style="stroke:none;stroke-width:0"
             inkscape:connector-curvature="0" /><path
             id="path1396"
             transform="translate(199.62985,134.765)"
             d="m 3.3125,-0.75 c 0.046875,0.390625 0.3125,0.8125 0.78125,0.8125 0.21875,0 0.828125,-0.140625 0.828125,-0.953125 v -0.5625 h -0.25 v 0.5625 c 0,0.578125 -0.25,0.640625 -0.359375,0.640625 -0.328125,0 -0.375,-0.453125 -0.375,-0.5 v -1.984375 c 0,-0.421875 0,-0.8125 -0.359375,-1.1875 C 3.1875,-4.3125 2.6875,-4.46875 2.21875,-4.46875 c -0.828125,0 -1.515625,0.46875 -1.515625,1.125 0,0.296875 0.203125,0.46875 0.46875,0.46875 0.28125,0 0.453125,-0.203125 0.453125,-0.453125 0,-0.125 -0.046875,-0.453125 -0.515625,-0.453125 C 1.390625,-4.140625 1.875,-4.25 2.1875,-4.25 c 0.5,0 1.0625,0.390625 1.0625,1.28125 v 0.359375 c -0.515625,0.03125 -1.203125,0.0625 -1.828125,0.359375 -0.75,0.34375 -1,0.859375 -1,1.296875 0,0.8125 0.96875,1.0625 1.59375,1.0625 0.65625,0 1.109375,-0.40625 1.296875,-0.859375 z M 3.25,-2.390625 v 1 c 0,0.9375 -0.71875,1.28125 -1.171875,1.28125 -0.484375,0 -0.890625,-0.34375 -0.890625,-0.84375 0,-0.546875 0.421875,-1.375 2.0625,-1.4375 z m 0,0"
             style="stroke:none;stroke-width:0"
             inkscape:connector-curvature="0" /><path
             id="path1398"
             transform="translate(204.61115,134.765)"
             d="M 1.765625,-6.921875 0.328125,-6.8125 V -6.5 c 0.703125,0 0.78125,0.0625 0.78125,0.5625 V -0.75 c 0,0.4375 -0.109375,0.4375 -0.78125,0.4375 V 0 C 0.65625,-0.015625 1.1875,-0.03125 1.4375,-0.03125 c 0.25,0 0.734375,0.015625 1.109375,0.03125 v -0.3125 c -0.671875,0 -0.78125,0 -0.78125,-0.4375 z m 0,0"
             style="stroke:none;stroke-width:0"
             inkscape:connector-curvature="0" /></g></g></g><g
       id="g1619"
       ns1:jacobian_sqrt="2.0"
       inkscapeversion="0.92.4"
       ns1:alignment="middle center"
       ns1:scale="1.5"
       ns1:preamble="/home/iasbeck/.config/inkscape/extensions/textext/default_packages.tex"
       ns1:text="Resposta desejada ($\\theta = \\gamma$)"
       ns1:pdfconverter="pdf2svg"
       ns1:texconverter="pdflatex"
       ns1:version="0.11.0"
       transform="matrix(2,0,0,-2,172.40865,349.14853)"><g
         id="g1617"><g
           id="g1567"
           style="fill:#000000;fill-opacity:1"><path
             id="path1559"
             transform="translate(148.712,134.765)"
             d="M 2.234375,-3.515625 V -6.09375 c 0,-0.234375 0,-0.359375 0.21875,-0.390625 C 2.546875,-6.5 2.84375,-6.5 3.046875,-6.5 c 0.890625,0 2,0.046875 2,1.484375 0,0.6875 -0.234375,1.5 -1.703125,1.5 z m 2.109375,0.125 C 5.296875,-3.625 6.078125,-4.234375 6.078125,-5.015625 6.078125,-5.96875 4.9375,-6.8125 3.484375,-6.8125 H 0.34375 V -6.5 h 0.25 c 0.765625,0 0.78125,0.109375 0.78125,0.46875 v 5.25 c 0,0.359375 -0.015625,0.46875 -0.78125,0.46875 h -0.25 V 0 c 0.359375,-0.03125 1.078125,-0.03125 1.453125,-0.03125 0.390625,0 1.109375,0 1.46875,0.03125 v -0.3125 h -0.25 c -0.765625,0 -0.78125,-0.109375 -0.78125,-0.46875 V -3.296875 H 3.375 c 0.15625,0 0.578125,0 0.9375,0.34375 0.375,0.34375 0.375,0.65625 0.375,1.328125 0,0.640625 0,1.046875 0.40625,1.421875 0.40625,0.359375 0.953125,0.421875 1.25,0.421875 0.78125,0 0.953125,-0.8125 0.953125,-1.09375 0,-0.0625 0,-0.171875 -0.125,-0.171875 -0.109375,0 -0.109375,0.09375 -0.125,0.15625 C 6.984375,-0.171875 6.640625,0 6.390625,0 5.90625,0 5.828125,-0.515625 5.6875,-1.4375 L 5.546875,-2.234375 C 5.375,-2.875 4.890625,-3.203125 4.34375,-3.390625 Z m 0,0"
             style="stroke:none;stroke-width:0"
             inkscape:connector-curvature="0" /><path
             id="path1561"
             transform="translate(156.04547,134.765)"
             d="M 1.109375,-2.515625 C 1.171875,-4 2.015625,-4.25 2.359375,-4.25 c 1.015625,0 1.125,1.34375 1.125,1.734375 z m 0,0.21875 h 2.78125 c 0.21875,0 0.25,0 0.25,-0.21875 0,-0.984375 -0.546875,-1.953125 -1.78125,-1.953125 -1.15625,0 -2.078125,1.03125 -2.078125,2.28125 0,1.328125 1.046875,2.296875 2.1875,2.296875 C 3.6875,0.109375 4.140625,-1 4.140625,-1.1875 4.140625,-1.28125 4.0625,-1.3125 4,-1.3125 c -0.078125,0 -0.109375,0.0625 -0.125,0.140625 -0.34375,1.03125 -1.25,1.03125 -1.34375,1.03125 -0.5,0 -0.890625,-0.296875 -1.125,-0.671875 -0.296875,-0.46875 -0.296875,-1.125 -0.296875,-1.484375 z m 0,0"
             style="stroke:none;stroke-width:0"
             inkscape:connector-curvature="0" /><path
             id="path1563"
             transform="translate(160.47285,134.765)"
             d="m 2.078125,-1.9375 c 0.21875,0.046875 1.03125,0.203125 1.03125,0.921875 0,0.5 -0.34375,0.90625 -1.125,0.90625 -0.84375,0 -1.203125,-0.5625 -1.390625,-1.421875 C 0.5625,-1.65625 0.5625,-1.6875 0.453125,-1.6875 c -0.125,0 -0.125,0.0625 -0.125,0.234375 V -0.125 c 0,0.171875 0,0.234375 0.109375,0.234375 0.046875,0 0.0625,-0.015625 0.25,-0.203125 0.015625,-0.015625 0.015625,-0.03125 0.203125,-0.21875 0.4375,0.40625 0.890625,0.421875 1.09375,0.421875 1.140625,0 1.609375,-0.671875 1.609375,-1.390625 0,-0.515625 -0.296875,-0.828125 -0.421875,-0.9375 C 2.84375,-2.546875 2.453125,-2.625 2.03125,-2.703125 1.46875,-2.8125 0.8125,-2.9375 0.8125,-3.515625 c 0,-0.359375 0.25,-0.765625 1.109375,-0.765625 1.09375,0 1.15625,0.90625 1.171875,1.203125 0,0.09375 0.09375,0.09375 0.109375,0.09375 0.140625,0 0.140625,-0.046875 0.140625,-0.234375 v -1.015625 c 0,-0.15625 0,-0.234375 -0.109375,-0.234375 -0.046875,0 -0.078125,0 -0.203125,0.125 -0.03125,0.03125 -0.125,0.125 -0.171875,0.15625 -0.375,-0.28125 -0.78125,-0.28125 -0.9375,-0.28125 -1.21875,0 -1.59375,0.671875 -1.59375,1.234375 0,0.34375 0.15625,0.625 0.421875,0.84375 0.328125,0.25 0.609375,0.3125 1.328125,0.453125 z m 0,0"
             style="stroke:none;stroke-width:0"
             inkscape:connector-curvature="0" /><path
             id="path1565"
             transform="translate(164.4021,134.765)"
             d="m 1.71875,-3.75 v -0.65625 l -1.4375,0.109375 v 0.3125 c 0.703125,0 0.78125,0.0625 0.78125,0.5 v 4.65625 C 1.0625,1.625 0.953125,1.625 0.28125,1.625 V 1.9375 C 0.625,1.921875 1.140625,1.90625 1.390625,1.90625 c 0.28125,0 0.78125,0.015625 1.125,0.03125 V 1.625 C 1.859375,1.625 1.75,1.625 1.75,1.171875 V -0.59375 c 0.046875,0.171875 0.46875,0.703125 1.21875,0.703125 1.1875,0 2.21875,-0.984375 2.21875,-2.265625 0,-1.265625 -0.953125,-2.25 -2.078125,-2.25 -0.78125,0 -1.203125,0.4375 -1.390625,0.65625 z M 1.75,-1.140625 v -2.21875 C 2.03125,-3.875 2.515625,-4.15625 3.03125,-4.15625 c 0.734375,0 1.328125,0.875 1.328125,2 0,1.203125 -0.6875,2.046875 -1.421875,2.046875 -0.40625,0 -0.78125,-0.203125 -1.046875,-0.609375 C 1.75,-0.921875 1.75,-0.9375 1.75,-1.140625 Z m 0,0"
             style="stroke:none;stroke-width:0"
             inkscape:connector-curvature="0" /></g><g
           id="g1577"
           style="fill:#000000;fill-opacity:1"><path
             id="path1569"
             transform="translate(170.21627,134.765)"
             d="M 4.6875,-2.140625 C 4.6875,-3.40625 3.703125,-4.46875 2.5,-4.46875 c -1.25,0 -2.21875,1.09375 -2.21875,2.328125 0,1.296875 1.03125,2.25 2.203125,2.25 1.203125,0 2.203125,-0.984375 2.203125,-2.25 z m -2.1875,2 c -0.4375,0 -0.875,-0.203125 -1.140625,-0.671875 -0.25,-0.4375 -0.25,-1.046875 -0.25,-1.40625 0,-0.390625 0,-0.921875 0.234375,-1.359375 C 1.609375,-4.03125 2.078125,-4.25 2.484375,-4.25 c 0.4375,0 0.859375,0.21875 1.125,0.65625 0.265625,0.421875 0.265625,1 0.265625,1.375 0,0.359375 0,0.90625 -0.21875,1.34375 C 3.421875,-0.421875 2.984375,-0.140625 2.5,-0.140625 Z m 0,0"
             style="stroke:none;stroke-width:0"
             inkscape:connector-curvature="0" /><path
             id="path1571"
             transform="translate(175.19757,134.765)"
             d="m 2.078125,-1.9375 c 0.21875,0.046875 1.03125,0.203125 1.03125,0.921875 0,0.5 -0.34375,0.90625 -1.125,0.90625 -0.84375,0 -1.203125,-0.5625 -1.390625,-1.421875 C 0.5625,-1.65625 0.5625,-1.6875 0.453125,-1.6875 c -0.125,0 -0.125,0.0625 -0.125,0.234375 V -0.125 c 0,0.171875 0,0.234375 0.109375,0.234375 0.046875,0 0.0625,-0.015625 0.25,-0.203125 0.015625,-0.015625 0.015625,-0.03125 0.203125,-0.21875 0.4375,0.40625 0.890625,0.421875 1.09375,0.421875 1.140625,0 1.609375,-0.671875 1.609375,-1.390625 0,-0.515625 -0.296875,-0.828125 -0.421875,-0.9375 C 2.84375,-2.546875 2.453125,-2.625 2.03125,-2.703125 1.46875,-2.8125 0.8125,-2.9375 0.8125,-3.515625 c 0,-0.359375 0.25,-0.765625 1.109375,-0.765625 1.09375,0 1.15625,0.90625 1.171875,1.203125 0,0.09375 0.09375,0.09375 0.109375,0.09375 0.140625,0 0.140625,-0.046875 0.140625,-0.234375 v -1.015625 c 0,-0.15625 0,-0.234375 -0.109375,-0.234375 -0.046875,0 -0.078125,0 -0.203125,0.125 -0.03125,0.03125 -0.125,0.125 -0.171875,0.15625 -0.375,-0.28125 -0.78125,-0.28125 -0.9375,-0.28125 -1.21875,0 -1.59375,0.671875 -1.59375,1.234375 0,0.34375 0.15625,0.625 0.421875,0.84375 0.328125,0.25 0.609375,0.3125 1.328125,0.453125 z m 0,0"
             style="stroke:none;stroke-width:0"
             inkscape:connector-curvature="0" /><path
             id="path1573"
             transform="translate(179.12682,134.765)"
             d="m 1.71875,-3.984375 h 1.4375 v -0.3125 H 1.71875 V -6.125 h -0.25 c 0,0.8125 -0.296875,1.875 -1.28125,1.921875 v 0.21875 h 0.84375 v 2.75 c 0,1.21875 0.9375,1.34375 1.296875,1.34375 0.703125,0 0.984375,-0.703125 0.984375,-1.34375 v -0.5625 h -0.25 V -1.25 c 0,0.734375 -0.296875,1.109375 -0.671875,1.109375 -0.671875,0 -0.671875,-0.90625 -0.671875,-1.078125 z m 0,0"
             style="stroke:none;stroke-width:0"
             inkscape:connector-curvature="0" /><path
             id="path1575"
             transform="translate(183.00128,134.765)"
             d="m 3.3125,-0.75 c 0.046875,0.390625 0.3125,0.8125 0.78125,0.8125 0.21875,0 0.828125,-0.140625 0.828125,-0.953125 v -0.5625 h -0.25 v 0.5625 c 0,0.578125 -0.25,0.640625 -0.359375,0.640625 -0.328125,0 -0.375,-0.453125 -0.375,-0.5 v -1.984375 c 0,-0.421875 0,-0.8125 -0.359375,-1.1875 C 3.1875,-4.3125 2.6875,-4.46875 2.21875,-4.46875 c -0.828125,0 -1.515625,0.46875 -1.515625,1.125 0,0.296875 0.203125,0.46875 0.46875,0.46875 0.28125,0 0.453125,-0.203125 0.453125,-0.453125 0,-0.125 -0.046875,-0.453125 -0.515625,-0.453125 C 1.390625,-4.140625 1.875,-4.25 2.1875,-4.25 c 0.5,0 1.0625,0.390625 1.0625,1.28125 v 0.359375 c -0.515625,0.03125 -1.203125,0.0625 -1.828125,0.359375 -0.75,0.34375 -1,0.859375 -1,1.296875 0,0.8125 0.96875,1.0625 1.59375,1.0625 0.65625,0 1.109375,-0.40625 1.296875,-0.859375 z M 3.25,-2.390625 v 1 c 0,0.9375 -0.71875,1.28125 -1.171875,1.28125 -0.484375,0 -0.890625,-0.34375 -0.890625,-0.84375 0,-0.546875 0.421875,-1.375 2.0625,-1.4375 z m 0,0"
             style="stroke:none;stroke-width:0"
             inkscape:connector-curvature="0" /></g><g
           id="g1595"
           style="fill:#000000;fill-opacity:1"><path
             id="path1579"
             transform="translate(191.30012,134.765)"
             d="m 3.78125,-0.546875 v 0.65625 L 5.25,0 v -0.3125 c -0.6875,0 -0.78125,-0.0625 -0.78125,-0.5625 V -6.921875 L 3.046875,-6.8125 V -6.5 c 0.6875,0 0.765625,0.0625 0.765625,0.5625 v 2.15625 c -0.28125,-0.359375 -0.71875,-0.625 -1.25,-0.625 -1.171875,0 -2.21875,0.984375 -2.21875,2.265625 0,1.265625 0.96875,2.25 2.109375,2.25 0.640625,0 1.078125,-0.34375 1.328125,-0.65625 z m 0,-2.671875 v 2.046875 c 0,0.171875 0,0.1875 -0.109375,0.359375 C 3.375,-0.328125 2.9375,-0.109375 2.5,-0.109375 2.046875,-0.109375 1.6875,-0.375 1.453125,-0.75 1.203125,-1.15625 1.171875,-1.71875 1.171875,-2.140625 1.171875,-2.5 1.1875,-3.09375 1.46875,-3.546875 1.6875,-3.859375 2.0625,-4.1875 2.609375,-4.1875 c 0.34375,0 0.765625,0.15625 1.0625,0.59375 0.109375,0.171875 0.109375,0.1875 0.109375,0.375 z m 0,0"
             style="stroke:none;stroke-width:0"
             inkscape:connector-curvature="0" /><path
             id="path1581"
             transform="translate(196.83534,134.765)"
             d="M 1.109375,-2.515625 C 1.171875,-4 2.015625,-4.25 2.359375,-4.25 c 1.015625,0 1.125,1.34375 1.125,1.734375 z m 0,0.21875 h 2.78125 c 0.21875,0 0.25,0 0.25,-0.21875 0,-0.984375 -0.546875,-1.953125 -1.78125,-1.953125 -1.15625,0 -2.078125,1.03125 -2.078125,2.28125 0,1.328125 1.046875,2.296875 2.1875,2.296875 C 3.6875,0.109375 4.140625,-1 4.140625,-1.1875 4.140625,-1.28125 4.0625,-1.3125 4,-1.3125 c -0.078125,0 -0.109375,0.0625 -0.125,0.140625 -0.34375,1.03125 -1.25,1.03125 -1.34375,1.03125 -0.5,0 -0.890625,-0.296875 -1.125,-0.671875 -0.296875,-0.46875 -0.296875,-1.125 -0.296875,-1.484375 z m 0,0"
             style="stroke:none;stroke-width:0"
             inkscape:connector-curvature="0" /><path
             id="path1583"
             transform="translate(201.26272,134.765)"
             d="m 2.078125,-1.9375 c 0.21875,0.046875 1.03125,0.203125 1.03125,0.921875 0,0.5 -0.34375,0.90625 -1.125,0.90625 -0.84375,0 -1.203125,-0.5625 -1.390625,-1.421875 C 0.5625,-1.65625 0.5625,-1.6875 0.453125,-1.6875 c -0.125,0 -0.125,0.0625 -0.125,0.234375 V -0.125 c 0,0.171875 0,0.234375 0.109375,0.234375 0.046875,0 0.0625,-0.015625 0.25,-0.203125 0.015625,-0.015625 0.015625,-0.03125 0.203125,-0.21875 0.4375,0.40625 0.890625,0.421875 1.09375,0.421875 1.140625,0 1.609375,-0.671875 1.609375,-1.390625 0,-0.515625 -0.296875,-0.828125 -0.421875,-0.9375 C 2.84375,-2.546875 2.453125,-2.625 2.03125,-2.703125 1.46875,-2.8125 0.8125,-2.9375 0.8125,-3.515625 c 0,-0.359375 0.25,-0.765625 1.109375,-0.765625 1.09375,0 1.15625,0.90625 1.171875,1.203125 0,0.09375 0.09375,0.09375 0.109375,0.09375 0.140625,0 0.140625,-0.046875 0.140625,-0.234375 v -1.015625 c 0,-0.15625 0,-0.234375 -0.109375,-0.234375 -0.046875,0 -0.078125,0 -0.203125,0.125 -0.03125,0.03125 -0.125,0.125 -0.171875,0.15625 -0.375,-0.28125 -0.78125,-0.28125 -0.9375,-0.28125 -1.21875,0 -1.59375,0.671875 -1.59375,1.234375 0,0.34375 0.15625,0.625 0.421875,0.84375 0.328125,0.25 0.609375,0.3125 1.328125,0.453125 z m 0,0"
             style="stroke:none;stroke-width:0"
             inkscape:connector-curvature="0" /><path
             id="path1585"
             transform="translate(205.19197,134.765)"
             d="M 1.109375,-2.515625 C 1.171875,-4 2.015625,-4.25 2.359375,-4.25 c 1.015625,0 1.125,1.34375 1.125,1.734375 z m 0,0.21875 h 2.78125 c 0.21875,0 0.25,0 0.25,-0.21875 0,-0.984375 -0.546875,-1.953125 -1.78125,-1.953125 -1.15625,0 -2.078125,1.03125 -2.078125,2.28125 0,1.328125 1.046875,2.296875 2.1875,2.296875 C 3.6875,0.109375 4.140625,-1 4.140625,-1.1875 4.140625,-1.28125 4.0625,-1.3125 4,-1.3125 c -0.078125,0 -0.109375,0.0625 -0.125,0.140625 -0.34375,1.03125 -1.25,1.03125 -1.34375,1.03125 -0.5,0 -0.890625,-0.296875 -1.125,-0.671875 -0.296875,-0.46875 -0.296875,-1.125 -0.296875,-1.484375 z m 0,0"
             style="stroke:none;stroke-width:0"
             inkscape:connector-curvature="0" /><path
             id="path1587"
             transform="translate(209.61935,134.765)"
             d="m 2.09375,-4.40625 -1.515625,0.109375 v 0.3125 c 0.765625,0 0.859375,0.0625 0.859375,0.5625 v 3.9375 c 0,0.453125 -0.09375,1.3125 -0.734375,1.3125 -0.046875,0 -0.28125,0 -0.53125,-0.140625 C 0.3125,1.65625 0.515625,1.515625 0.515625,1.25 0.515625,0.984375 0.34375,0.78125 0.0625,0.78125 c -0.28125,0 -0.46875,0.203125 -0.46875,0.46875 0,0.515625 0.5625,0.796875 1.140625,0.796875 C 1.46875,2.046875 2.09375,1.40625 2.09375,0.5 Z m 0,-1.734375 c 0,-0.296875 -0.234375,-0.53125 -0.53125,-0.53125 -0.28125,0 -0.53125,0.234375 -0.53125,0.53125 0,0.28125 0.25,0.53125 0.53125,0.53125 0.296875,0 0.53125,-0.25 0.53125,-0.53125 z m 0,0"
             style="stroke:none;stroke-width:0"
             inkscape:connector-curvature="0" /><path
             id="path1589"
             transform="translate(212.66392,134.765)"
             d="m 3.3125,-0.75 c 0.046875,0.390625 0.3125,0.8125 0.78125,0.8125 0.21875,0 0.828125,-0.140625 0.828125,-0.953125 v -0.5625 h -0.25 v 0.5625 c 0,0.578125 -0.25,0.640625 -0.359375,0.640625 -0.328125,0 -0.375,-0.453125 -0.375,-0.5 v -1.984375 c 0,-0.421875 0,-0.8125 -0.359375,-1.1875 C 3.1875,-4.3125 2.6875,-4.46875 2.21875,-4.46875 c -0.828125,0 -1.515625,0.46875 -1.515625,1.125 0,0.296875 0.203125,0.46875 0.46875,0.46875 0.28125,0 0.453125,-0.203125 0.453125,-0.453125 0,-0.125 -0.046875,-0.453125 -0.515625,-0.453125 C 1.390625,-4.140625 1.875,-4.25 2.1875,-4.25 c 0.5,0 1.0625,0.390625 1.0625,1.28125 v 0.359375 c -0.515625,0.03125 -1.203125,0.0625 -1.828125,0.359375 -0.75,0.34375 -1,0.859375 -1,1.296875 0,0.8125 0.96875,1.0625 1.59375,1.0625 0.65625,0 1.109375,-0.40625 1.296875,-0.859375 z M 3.25,-2.390625 v 1 c 0,0.9375 -0.71875,1.28125 -1.171875,1.28125 -0.484375,0 -0.890625,-0.34375 -0.890625,-0.84375 0,-0.546875 0.421875,-1.375 2.0625,-1.4375 z m 0,0"
             style="stroke:none;stroke-width:0"
             inkscape:connector-curvature="0" /><path
             id="path1591"
             transform="translate(217.64522,134.765)"
             d="m 3.78125,-0.546875 v 0.65625 L 5.25,0 v -0.3125 c -0.6875,0 -0.78125,-0.0625 -0.78125,-0.5625 V -6.921875 L 3.046875,-6.8125 V -6.5 c 0.6875,0 0.765625,0.0625 0.765625,0.5625 v 2.15625 c -0.28125,-0.359375 -0.71875,-0.625 -1.25,-0.625 -1.171875,0 -2.21875,0.984375 -2.21875,2.265625 0,1.265625 0.96875,2.25 2.109375,2.25 0.640625,0 1.078125,-0.34375 1.328125,-0.65625 z m 0,-2.671875 v 2.046875 c 0,0.171875 0,0.1875 -0.109375,0.359375 C 3.375,-0.328125 2.9375,-0.109375 2.5,-0.109375 2.046875,-0.109375 1.6875,-0.375 1.453125,-0.75 1.203125,-1.15625 1.171875,-1.71875 1.171875,-2.140625 1.171875,-2.5 1.1875,-3.09375 1.46875,-3.546875 1.6875,-3.859375 2.0625,-4.1875 2.609375,-4.1875 c 0.34375,0 0.765625,0.15625 1.0625,0.59375 0.109375,0.171875 0.109375,0.1875 0.109375,0.375 z m 0,0"
             style="stroke:none;stroke-width:0"
             inkscape:connector-curvature="0" /><path
             id="path1593"
             transform="translate(223.18044,134.765)"
             d="m 3.3125,-0.75 c 0.046875,0.390625 0.3125,0.8125 0.78125,0.8125 0.21875,0 0.828125,-0.140625 0.828125,-0.953125 v -0.5625 h -0.25 v 0.5625 c 0,0.578125 -0.25,0.640625 -0.359375,0.640625 -0.328125,0 -0.375,-0.453125 -0.375,-0.5 v -1.984375 c 0,-0.421875 0,-0.8125 -0.359375,-1.1875 C 3.1875,-4.3125 2.6875,-4.46875 2.21875,-4.46875 c -0.828125,0 -1.515625,0.46875 -1.515625,1.125 0,0.296875 0.203125,0.46875 0.46875,0.46875 0.28125,0 0.453125,-0.203125 0.453125,-0.453125 0,-0.125 -0.046875,-0.453125 -0.515625,-0.453125 C 1.390625,-4.140625 1.875,-4.25 2.1875,-4.25 c 0.5,0 1.0625,0.390625 1.0625,1.28125 v 0.359375 c -0.515625,0.03125 -1.203125,0.0625 -1.828125,0.359375 -0.75,0.34375 -1,0.859375 -1,1.296875 0,0.8125 0.96875,1.0625 1.59375,1.0625 0.65625,0 1.109375,-0.40625 1.296875,-0.859375 z M 3.25,-2.390625 v 1 c 0,0.9375 -0.71875,1.28125 -1.171875,1.28125 -0.484375,0 -0.890625,-0.34375 -0.890625,-0.84375 0,-0.546875 0.421875,-1.375 2.0625,-1.4375 z m 0,0"
             style="stroke:none;stroke-width:0"
             inkscape:connector-curvature="0" /></g><g
           id="g1599"
           style="fill:#000000;fill-opacity:1"><path
             id="path1597"
             transform="translate(231.48925,134.765)"
             d="m 3.296875,2.390625 c 0,-0.03125 0,-0.046875 -0.171875,-0.21875 C 1.890625,0.921875 1.5625,-0.96875 1.5625,-2.5 c 0,-1.734375 0.375,-3.46875 1.609375,-4.703125 0.125,-0.125 0.125,-0.140625 0.125,-0.171875 0,-0.078125 -0.03125,-0.109375 -0.09375,-0.109375 -0.109375,0 -1,0.6875 -1.59375,1.953125 -0.5,1.09375 -0.625,2.203125 -0.625,3.03125 0,0.78125 0.109375,1.984375 0.65625,3.125 C 2.25,1.84375 3.09375,2.5 3.203125,2.5 c 0.0625,0 0.09375,-0.03125 0.09375,-0.109375 z m 0,0"
             style="stroke:none;stroke-width:0"
             inkscape:connector-curvature="0" /></g><g
           id="g1603"
           style="fill:#000000;fill-opacity:1"><path
             id="path1601"
             transform="translate(235.36,134.765)"
             d="m 4.53125,-4.984375 c 0,-0.65625 -0.171875,-2.046875 -1.1875,-2.046875 -1.390625,0 -2.921875,2.8125 -2.921875,5.09375 0,0.9375 0.28125,2.046875 1.1875,2.046875 1.40625,0 2.921875,-2.859375 2.921875,-5.09375 z M 1.46875,-3.625 C 1.640625,-4.25 1.84375,-5.046875 2.25,-5.765625 2.515625,-6.25 2.875,-6.8125 3.328125,-6.8125 c 0.484375,0 0.546875,0.640625 0.546875,1.203125 0,0.5 -0.078125,1 -0.3125,1.984375 z m 2,0.328125 C 3.359375,-2.84375 3.15625,-2 2.765625,-1.28125 c -0.34375,0.6875 -0.71875,1.171875 -1.15625,1.171875 -0.328125,0 -0.53125,-0.296875 -0.53125,-1.21875 0,-0.421875 0.0625,-1 0.3125,-1.96875 z m 0,0"
             style="stroke:none;stroke-width:0"
             inkscape:connector-curvature="0" /></g><g
           id="g1607"
           style="fill:#000000;fill-opacity:1"><path
             id="path1605"
             transform="translate(243.081,134.765)"
             d="m 6.84375,-3.265625 c 0.15625,0 0.34375,0 0.34375,-0.1875 C 7.1875,-3.65625 7,-3.65625 6.859375,-3.65625 h -5.96875 c -0.140625,0 -0.328125,0 -0.328125,0.203125 0,0.1875 0.1875,0.1875 0.328125,0.1875 z m 0.015625,1.9375 c 0.140625,0 0.328125,0 0.328125,-0.203125 0,-0.1875 -0.1875,-0.1875 -0.34375,-0.1875 H 0.890625 c -0.140625,0 -0.328125,0 -0.328125,0.1875 0,0.203125 0.1875,0.203125 0.328125,0.203125 z m 0,0"
             style="stroke:none;stroke-width:0"
             inkscape:connector-curvature="0" /></g><g
           id="g1611"
           style="fill:#000000;fill-opacity:1"><path
             id="path1609"
             transform="translate(253.597,134.765)"
             d="M 0.40625,-2.53125 C 0.796875,-3.671875 1.890625,-3.6875 2,-3.6875 c 1.5,0 1.609375,1.75 1.609375,2.53125 0,0.609375 -0.046875,0.78125 -0.125,0.984375 -0.21875,0.71875 -0.515625,1.875 -0.515625,2.140625 0,0.109375 0.046875,0.171875 0.125,0.171875 0.140625,0 0.21875,-0.21875 0.328125,-0.59375 C 3.65625,0.703125 3.75,0.140625 3.78125,-0.171875 c 0.03125,-0.125 0.046875,-0.25 0.09375,-0.390625 0.3125,-0.984375 0.953125,-2.46875 1.34375,-3.25 0.078125,-0.125 0.1875,-0.34375 0.1875,-0.390625 0,-0.09375 -0.09375,-0.09375 -0.109375,-0.09375 -0.03125,0 -0.09375,0 -0.125,0.0625 C 4.65625,-3.28125 4.25,-2.28125 3.859375,-1.28125 3.84375,-1.578125 3.84375,-2.34375 3.453125,-3.3125 3.203125,-3.921875 2.8125,-4.40625 2.125,-4.40625 c -1.25,0 -1.953125,1.515625 -1.953125,1.828125 0,0.09375 0.09375,0.09375 0.203125,0.09375 z m 0,0"
             style="stroke:none;stroke-width:0"
             inkscape:connector-curvature="0" /></g><g
           id="g1615"
           style="fill:#000000;fill-opacity:1"><path
             id="path1613"
             transform="translate(259.308,134.765)"
             d="m 2.875,-2.5 c 0,-0.765625 -0.109375,-1.96875 -0.65625,-3.109375 -0.59375,-1.21875 -1.453125,-1.875 -1.546875,-1.875 -0.0625,0 -0.109375,0.046875 -0.109375,0.109375 0,0.03125 0,0.046875 0.1875,0.234375 0.984375,0.984375 1.546875,2.5625 1.546875,4.640625 0,1.71875 -0.359375,3.46875 -1.59375,4.71875 C 0.5625,2.34375 0.5625,2.359375 0.5625,2.390625 0.5625,2.453125 0.609375,2.5 0.671875,2.5 0.765625,2.5 1.671875,1.8125 2.25,0.546875 2.765625,-0.546875 2.875,-1.65625 2.875,-2.5 Z m 0,0"
             style="stroke:none;stroke-width:0"
             inkscape:connector-curvature="0" /></g></g></g><g
       id="g2099"
       ns1:jacobian_sqrt="2.4"
       inkscapeversion="0.92.4"
       ns1:alignment="middle center"
       ns1:scale="1.8"
       ns1:preamble="/home/iasbeck/.config/inkscape/extensions/textext/default_packages.tex"
       ns1:text="$e$"
       ns1:pdfconverter="pdf2svg"
       ns1:texconverter="pdflatex"
       ns1:version="0.11.0"
       transform="matrix(2.400000,0.000000,0.000000,-2.400000,161.079445,641.536835)"><g
         id="surface1"><g
           id="g2096"
           style="fill:rgb(0%,0%,0%);fill-opacity:1;"><path
             id="path2094"
             transform="translate(148.712,134.765)"
             d="M 1.859375 -2.296875 C 2.15625 -2.296875 2.890625 -2.328125 3.390625 -2.53125 C 4.09375 -2.828125 4.140625 -3.421875 4.140625 -3.5625 C 4.140625 -4 3.765625 -4.40625 3.078125 -4.40625 C 1.96875 -4.40625 0.453125 -3.4375 0.453125 -1.6875 C 0.453125 -0.671875 1.046875 0.109375 2.03125 0.109375 C 3.453125 0.109375 4.28125 -0.953125 4.28125 -1.0625 C 4.28125 -1.125 4.234375 -1.203125 4.171875 -1.203125 C 4.109375 -1.203125 4.09375 -1.171875 4.03125 -1.09375 C 3.25 -0.109375 2.15625 -0.109375 2.046875 -0.109375 C 1.265625 -0.109375 1.171875 -0.953125 1.171875 -1.265625 C 1.171875 -1.390625 1.1875 -1.6875 1.328125 -2.296875 Z M 1.390625 -2.515625 C 1.78125 -4.03125 2.8125 -4.1875 3.078125 -4.1875 C 3.53125 -4.1875 3.8125 -3.890625 3.8125 -3.5625 C 3.8125 -2.515625 2.21875 -2.515625 1.796875 -2.515625 Z M 1.390625 -2.515625 "
             style="stroke:none;stroke-width:0" /></g></g></g></g></svg>